<svg id="Ebene_1" data-name="Ebene 1" xmlns="http://www.w3.org/2000/svg" viewBox="0 0 325.75 104.7"><defs><style>.cls-1{fill:none;}.cls-2{fill:#a7cd74;}.cls-3,.cls-4{fill:#005694;}.cls-4{font-size:18px;font-family:OCRAExtended, OCR A Extended;}</style></defs><title>logo</title><path class="cls-1" d="M51.7,98.6a1.84,1.84,0,0,0-1.9,1.9h3.6C53.3,99.5,52.9,98.6,51.7,98.6Z" transform="translate(-2.55 -0.6)"/><polygon class="cls-2" points="246.75 25.4 325.75 25.4 316.55 0 246.75 25.4"/><path class="cls-1" d="M105.3,65h-3.6V75.3h3.5c4.3,0,8.7-.6,8.7-5.1C113.9,65.4,109.4,65,105.3,65Z" transform="translate(-2.55 -0.6)"/><path class="cls-1" d="M112.8,52.4c0-4-3.8-4.4-7.7-4.4h-3.4v9H105C108.9,57.1,112.8,56.1,112.8,52.4Z" transform="translate(-2.55 -0.6)"/><path class="cls-1" d="M230.2,98.6a1.84,1.84,0,0,0-1.9,1.9h3.6A1.68,1.68,0,0,0,230.2,98.6Z" transform="translate(-2.55 -0.6)"/><path class="cls-1" d="M204.1,98.6a1.84,1.84,0,0,0-1.9,1.9h3.6A1.68,1.68,0,0,0,204.1,98.6Z" transform="translate(-2.55 -0.6)"/><polygon class="cls-3" points="13.6 82.95 19.9 82.95 19.9 44.55 33.6 44.55 33.6 39.05 0 39.05 0 44.55 13.6 44.55 13.6 82.95"/><polygon class="cls-3" points="37.05 39.1 37.05 83 43.35 83 43.35 83 64.35 83 64.35 83 70.65 83 70.65 39.1 64.35 39.1 64.35 77.5 43.17 77.5 43.35 39.1 37.05 39.1"/><path class="cls-3" d="M124.5,50.8c0-7.5-6.1-11.1-14.3-11.1H90.1V83.6h18.5c7.9,0,17.1-2.2,17.1-12.7,0-5.3-3-8.5-8.9-9.7v-.1C121.7,59.5,124.5,56.4,124.5,50.8ZM101.8,48h3.4c3.9,0,7.7.4,7.7,4.4,0,3.7-4,4.7-7.8,4.7h-3.3Zm3.4,27.3h-3.5V65h3.6c4,0,8.6.4,8.6,5.2C113.9,74.7,109.5,75.3,105.2,75.3Z" transform="translate(-2.55 -0.6)"/><rect class="cls-3" x="129.85" y="39.1" width="11.7" height="43.9"/><polygon class="cls-3" points="179.85 68.9 179.75 68.9 164.85 39.1 149.95 39.1 149.95 83 160.35 83 160.35 53 160.45 53 175.85 83 190.35 83 190.35 39.1 179.85 39.1 179.85 68.9"/><path class="cls-3" d="M228.5,47.6a22.75,22.75,0,0,1,10.7,2.8l.9-9.6c-4.3-1.6-10.4-1.9-13.3-1.9-16.1,0-27.7,6.3-27.7,22.9s13.5,22.5,25.2,22.5a64.22,64.22,0,0,0,17-2V57.9H223.1v8.3h6.8v8.7a10.33,10.33,0,0,1-4.1.8c-8.5,0-14.6-5.2-14.6-13.8C211.2,51.6,219,47.6,228.5,47.6Z" transform="translate(-2.55 -0.6)"/><polygon class="cls-3" points="277.65 47.4 277.65 39.1 246.75 39.1 246.75 83 278.35 83 278.35 74.7 258.45 74.7 258.45 64.8 276.55 64.8 276.55 56.5 258.45 56.5 258.45 47.4 277.65 47.4"/><polygon class="cls-3" points="315.25 68.9 315.15 68.9 300.35 39.1 285.45 39.1 285.45 83 295.85 83 295.85 53 295.95 53 311.25 83 325.75 83 325.75 39.1 315.25 39.1 315.25 68.9"/><text class="cls-4" transform="translate(1.03 101.52)">Technischer Untergrund</text></svg>