<svg id="Ebene_1" data-name="Ebene 1" xmlns="http://www.w3.org/2000/svg" viewBox="0 0 325.75 104.7"><defs><style>.cls-1{fill:none;}.cls-2{fill:#20c20e;}.cls-3{fill:#3c3c3c;}.cls-4{isolation:isolate;font-size:18px;font-family:OCRAExtended, OCR A Extended;}</style></defs><title>logo_dark</title><path class="cls-1" d="M49.15,98a1.84,1.84,0,0,0-1.9,1.78v.12h3.6C50.75,98.9,50.35,98,49.15,98Z"/><polygon class="cls-2" points="246.75 25.4 325.75 25.4 316.55 0 246.75 25.4"/><path class="cls-1" d="M102.75,64.4h-3.6V74.7h3.5c4.3,0,8.7-.6,8.7-5.1C111.35,64.8,106.85,64.4,102.75,64.4Z"/><path class="cls-1" d="M110.25,51.8c0-4-3.8-4.4-7.7-4.4h-3.4v9h3.3C106.35,56.5,110.25,55.5,110.25,51.8Z"/><path class="cls-1" d="M227.65,98a1.84,1.84,0,0,0-1.9,1.78v.12h3.6A1.69,1.69,0,0,0,227.9,98Z"/><path class="cls-1" d="M201.55,98a1.84,1.84,0,0,0-1.9,1.78v.12h3.6A1.69,1.69,0,0,0,201.8,98Z"/><polygon class="cls-3" points="13.6 82.95 19.9 82.95 19.9 44.55 33.6 44.55 33.6 39.05 0 39.05 0 44.55 13.6 44.55 13.6 82.95"/><path class="cls-3" d="M37.05,39.1V83h33.6V39.1h-6.3V77.5h-21V39.1Z"/><path class="cls-3" d="M122,50.2c0-7.5-6.1-11.1-14.3-11.1H87.55V83h18.5c7.9,0,17.1-2.2,17.1-12.7,0-5.3-3-8.5-8.9-9.7v-.1C119.15,58.9,122,55.8,122,50.2Zm-22.7-2.8h3.4c3.9,0,7.7.4,7.7,4.4,0,3.7-4,4.7-7.8,4.7h-3.3Zm3.4,27.3h-3.5V64.4h3.6c4,0,8.6.4,8.6,5.2C111.35,74.1,107,74.7,102.65,74.7Z"/><rect class="cls-3" x="129.85" y="39.1" width="11.7" height="43.9"/><polygon class="cls-3" points="179.85 68.9 179.75 68.9 164.85 39.1 149.95 39.1 149.95 83 160.35 83 160.35 53 160.45 53 175.85 83 190.35 83 190.35 39.1 179.85 39.1 179.85 68.9"/><path class="cls-3" d="M226,47a22.76,22.76,0,0,1,10.7,2.8l.9-9.6c-4.3-1.6-10.4-1.9-13.3-1.9-16.1,0-27.7,6.3-27.7,22.9s13.5,22.5,25.2,22.5a64.51,64.51,0,0,0,17-2V57.3h-18.2v8.3h6.8v8.7a10.3,10.3,0,0,1-4.1.8c-8.5,0-14.6-5.2-14.6-13.8C208.65,51,216.45,47,226,47Z"/><polygon class="cls-3" points="277.65 47.4 277.65 39.1 246.75 39.1 246.75 83 278.35 83 278.35 74.7 258.45 74.7 258.45 64.8 276.55 64.8 276.55 56.5 258.45 56.5 258.45 47.4 277.65 47.4"/><polygon class="cls-3" points="315.25 68.9 315.15 68.9 300.35 39.1 285.45 39.1 285.45 83 295.85 83 295.85 53 295.95 53 311.25 83 325.75 83 325.75 39.1 315.25 39.1 315.25 68.9"/><text class="cls-4" transform="translate(1.03 101.52)">Technischer Untergrund</text></svg>