<?xml version="1.0" encoding="UTF-8" standalone="no"?>
<svg
   viewBox="0 0 74.125573 83.098965"
   version="1.1"
   id="svg22"
   sodipodi:docname="cyberaxe-rotated-white.svg"
   width="74.125572"
   height="83.098961"
   inkscape:version="1.4 (e7c3feb100, 2024-10-09)"
   xmlns:inkscape="http://www.inkscape.org/namespaces/inkscape"
   xmlns:sodipodi="http://sodipodi.sourceforge.net/DTD/sodipodi-0.dtd"
   xmlns="http://www.w3.org/2000/svg"
   xmlns:svg="http://www.w3.org/2000/svg"
   xmlns:rdf="http://www.w3.org/1999/02/22-rdf-syntax-ns#"
   xmlns:cc="http://creativecommons.org/ns#"
   xmlns:dc="http://purl.org/dc/elements/1.1/">
  <sodipodi:namedview
     id="namedview22"
     pagecolor="#ffffff"
     bordercolor="#000000"
     borderopacity="0.25"
     inkscape:showpageshadow="2"
     inkscape:pageopacity="0.0"
     inkscape:pagecheckerboard="0"
     inkscape:deskcolor="#d1d1d1"
     inkscape:zoom="3.7188867"
     inkscape:cx="103.25671"
     inkscape:cy="41.544691"
     inkscape:window-width="1920"
     inkscape:window-height="1080"
     inkscape:window-x="0"
     inkscape:window-y="0"
     inkscape:window-maximized="1"
     inkscape:current-layer="svg22" />
  <defs
     id="defs1">
    <style
       id="style1">.cls-1{fill:#070308;}.cls-2{fill:#211915;}</style>
  </defs>
  <title
     id="title1">Recurso 4</title>
  <g
     id="Capa_4"
     data-name="Capa 4"
     transform="translate(-134.61284,0.01179552)"
     style="fill:#ffffff;stroke:none">
    <path
       class="cls-1"
       d="M 167.72,6.71 185.27,16 c 1.71,0.9 3.22,-1.69 1.51,-2.59 L 169.23,4.12 c -1.71,-0.9 -3.22,1.69 -1.51,2.59 z"
       id="path1"
       style="fill:#ffffff;stroke:none" />
    <path
       class="cls-1"
       d="M 159.24,26 169.66,6.21 c 0.9,-1.71 -1.69,-3.22 -2.59,-1.51 l -10.42,19.75 c -0.9,1.71 1.69,3.22 2.59,1.51 z"
       id="path2"
       style="fill:#ffffff;stroke:none" />
    <path
       class="cls-1"
       d="M 176.29,33.28 158.74,24 c -1.71,-0.9 -3.22,1.69 -1.51,2.59 l 17.55,9.25 c 1.71,0.9 3.22,-1.69 1.51,-2.59 z"
       id="path3"
       style="fill:#ffffff;stroke:none" />
    <path
       class="cls-1"
       d="m 137.39,78.52 26.42,-50.14 c 0.9,-1.71 -1.69,-3.22 -2.59,-1.51 L 134.8,77 c -0.9,1.71 1.69,3.22 2.59,1.51 z"
       id="path4"
       style="fill:#ffffff;stroke:none" />
    <path
       class="cls-1"
       d="m 144,80.31 -7.08,-3.73 c -1.71,-0.9 -3.22,1.69 -1.51,2.59 l 7.08,3.73 c 1.71,0.9 3.22,-1.69 1.51,-2.59 z"
       id="path5"
       style="fill:#ffffff;stroke:none" />
    <path
       class="cls-1"
       d="m 168.45,30.67 -19.27,36.57 c -0.9,1.71 1.69,3.22 2.59,1.51 L 171,32.19 c 0.9,-1.71 -1.69,-3.22 -2.59,-1.51 z"
       id="path6"
       style="fill:#ffffff;stroke:none" />
    <path
       class="cls-1"
       d="m 182.21,4.57 -3.26,6.19 c -0.9,1.71 1.69,3.22 2.59,1.51 l 3.26,-6.19 c 0.9,-1.71 -1.69,-3.22 -2.59,-1.51 z"
       id="path7"
       style="fill:#ffffff;stroke:none" />
    <path
       class="cls-1"
       d="m 175.63,2.78 7.08,3.73 c 1.71,0.9 3.22,-1.69 1.51,-2.59 l -7.08,-3.73 c -1.71,-0.9 -3.22,1.69 -1.51,2.59 z"
       id="path8"
       style="fill:#ffffff;stroke:none" />
    <path
       class="cls-1"
       d="m 174.31,8.47 3.26,-6.19 C 178.47,0.57 175.88,-1 175,0.76 L 171.72,7 c -0.9,1.71 1.69,3.22 2.59,1.51 z"
       id="path9"
       style="fill:#ffffff;stroke:none" />
    <path
       class="cls-1"
       d="m 174.2,35.27 10.57,16.78 c 1,1.63 3.62,0.13 2.59,-1.51 L 176.79,33.76 c -1,-1.63 -3.62,-0.13 -2.59,1.51 z"
       id="path10"
       style="fill:#ffffff;stroke:none" />
    <path
       class="cls-1"
       d="m 185.94,16.19 19.82,-0.76 c 1.92,-0.07 1.93,-3.07 0,-3 l -19.82,0.76 c -1.92,0.07 -1.93,3.07 0,3 z"
       id="path11"
       style="fill:#ffffff;stroke:none" />
    <path
       class="cls-1"
       d="m 186.64,52.93 a 31.91,31.91 0 0 0 20.81,-39.34 1.5,1.5 0 0 0 -2.89,0.8 A 28.85,28.85 0 0 1 185.84,50 c -1.82,0.61 -1,3.51 0.8,2.89 z"
       id="path12"
       style="fill:#ffffff;stroke:none" />
    <path
       class="cls-1"
       d="m 165,11.87 8.11,4.27 c 1.71,0.9 3.22,-1.69 1.51,-2.59 l -8.11,-4.27 c -1.71,-0.9 -3.22,1.69 -1.51,2.59 z"
       id="path13"
       style="fill:#ffffff;stroke:none" />
    <path
       class="cls-1"
       d="m 177.85,12.62 a 3.8332264,3.8332264 0 1 0 -3.69,6.72 3.8332264,3.8332264 0 0 0 3.69,-6.72 1.5,1.5 0 0 0 -1.51,2.59 c 0.9,0.53 0.35,2 -0.66,1.54 -1.01,-0.46 -0.31,-2 0.66,-1.54 a 1.54,1.54 0 0 0 2.05,-0.54 1.51,1.51 0 0 0 -0.54,-2.05 z"
       id="path14"
       style="fill:#ffffff;stroke:none" />
    <path
       class="cls-1"
       d="m 192.56,15.17 2.72,8.83 c 0.57,1.84 3.47,1.05 2.89,-0.8 l -2.72,-8.78 c -0.57,-1.84 -3.47,-1.05 -2.89,0.8 z"
       id="path15"
       style="fill:#ffffff;stroke:none" />
    <path
       class="cls-1"
       d="M 195.39,22.82 189.48,34 c -0.9,1.71 1.69,3.22 2.59,1.51 L 198,24.33 c 0.9,-1.71 -1.69,-3.22 -2.59,-1.51 z"
       id="path16"
       style="fill:#ffffff;stroke:none" />
    <path
       class="cls-1"
       d="m 193.36,35.82 a 3.75,3.75 0 1 0 -2.53,4.66 3.82,3.82 0 0 0 2.53,-4.66 c -0.48,-1.87 -3.37,-1.08 -2.89,0.8 0.23,0.91 -1,1.47 -1.41,0.53 a 0.75316001,0.75316001 0 0 1 1.41,-0.53 1.54,1.54 0 0 0 1.85,1 1.51,1.51 0 0 0 1.04,-1.8 z"
       id="path17"
       style="fill:#ffffff;stroke:none" />
    <path
       class="cls-1"
       d="m 160.18,21 17.25,9.09 c 1.71,0.9 3.22,-1.69 1.51,-2.59 l -17.25,-9.09 c -1.71,-0.9 -3.22,1.69 -1.51,2.59 z"
       id="path18"
       style="fill:#ffffff;stroke:none" />
    <path
       class="cls-1"
       d="m 178.68,30.29 3.93,-1.22 c 1.84,-0.57 1.05,-3.47 -0.8,-2.89 l -3.93,1.22 c -1.84,0.57 -1.05,3.47 0.8,2.89 z"
       id="path19"
       style="fill:#ffffff;stroke:none" />
    <path
       class="cls-1"
       d="m 186.12,23.2 a 3.83,3.83 0 1 0 1.44,5.17 3.86,3.86 0 0 0 -1.44,-5.17 1.5,1.5 0 0 0 -1.51,2.59 c 0.84,0.5 0.24,1.92 -0.66,1.54 -0.9,-0.38 -0.2,-1.94 0.66,-1.54 a 1.54,1.54 0 0 0 2.05,-0.54 1.51,1.51 0 0 0 -0.54,-2.05 z"
       id="path20"
       style="fill:#ffffff;stroke:none" />
    <path
       class="cls-1"
       d="m 152.75,69.26 a 3.75,3.75 0 1 0 -2.53,4.66 3.82,3.82 0 0 0 2.53,-4.66 c -0.48,-1.87 -3.37,-1.08 -2.89,0.8 0.23,0.91 -1,1.47 -1.41,0.53 a 0.75316001,0.75316001 0 0 1 1.41,-0.53 1.54,1.54 0 0 0 1.85,1 1.51,1.51 0 0 0 1.04,-1.8 z"
       id="path21"
       style="fill:#ffffff;stroke:none" />
    <path
       class="cls-1"
       d="m 144.62,82.33 4.82,-9.14 c 0.9,-1.71 -1.69,-3.22 -2.59,-1.51 L 142,80.81 c -0.9,1.71 1.69,3.22 2.59,1.51 z"
       id="path22"
       style="fill:#ffffff;stroke:none" />
  </g>
  <metadata
     id="metadata22">
    <rdf:RDF>
      <cc:Work
         rdf:about="">
        <dc:title>Recurso 4</dc:title>
      </cc:Work>
    </rdf:RDF>
  </metadata>
</svg>
