<svg xmlns="http://www.w3.org/2000/svg" viewBox="0 0 475.68 83.09"><defs><style>.cls-1{fill:#070308;}.cls-2{fill:#211915;}</style></defs><title>Recurso 4</title><g id="Capa_2" data-name="Capa 2"><g id="Capa_4" data-name="Capa 4"><path class="cls-1" d="M167.72,6.71,185.27,16c1.71.9,3.22-1.69,1.51-2.59L169.23,4.12c-1.71-.9-3.22,1.69-1.51,2.59Z"/><path class="cls-1" d="M159.24,26,169.66,6.21c.9-1.71-1.69-3.22-2.59-1.51L156.65,24.45c-.9,1.71,1.69,3.22,2.59,1.51Z"/><path class="cls-1" d="M176.29,33.28,158.74,24c-1.71-.9-3.22,1.69-1.51,2.59l17.55,9.25c1.71.9,3.22-1.69,1.51-2.59Z"/><path class="cls-1" d="M137.39,78.52l26.42-50.14c.9-1.71-1.69-3.22-2.59-1.51L134.8,77c-.9,1.71,1.69,3.22,2.59,1.51Z"/><path class="cls-1" d="M144,80.31l-7.08-3.73c-1.71-.9-3.22,1.69-1.51,2.59l7.08,3.73c1.71.9,3.22-1.69,1.51-2.59Z"/><path class="cls-1" d="M168.45,30.67,149.18,67.24c-.9,1.71,1.69,3.22,2.59,1.51L171,32.19c.9-1.71-1.69-3.22-2.59-1.51Z"/><path class="cls-1" d="M182.21,4.57l-3.26,6.19c-.9,1.71,1.69,3.22,2.59,1.51l3.26-6.19c.9-1.71-1.69-3.22-2.59-1.51Z"/><path class="cls-1" d="M175.63,2.78l7.08,3.73c1.71.9,3.22-1.69,1.51-2.59L177.14.19c-1.71-.9-3.22,1.69-1.51,2.59Z"/><path class="cls-1" d="M174.31,8.47l3.26-6.19C178.47.57,175.88-1,175,.76L171.72,7c-.9,1.71,1.69,3.22,2.59,1.51Z"/><path class="cls-1" d="M174.2,35.27l10.57,16.78c1,1.63,3.62.13,2.59-1.51L176.79,33.76c-1-1.63-3.62-.13-2.59,1.51Z"/><path class="cls-1" d="M185.94,16.19l19.82-.76c1.92-.07,1.93-3.07,0-3l-19.82.76c-1.92.07-1.93,3.07,0,3Z"/><path class="cls-1" d="M186.64,52.93a31.91,31.91,0,0,0,20.81-39.34,1.5,1.5,0,0,0-2.89.8A28.85,28.85,0,0,1,185.84,50c-1.82.61-1,3.51.8,2.89Z"/><path class="cls-1" d="M165,11.87l8.11,4.27c1.71.9,3.22-1.69,1.51-2.59l-8.11-4.27c-1.71-.9-3.22,1.69-1.51,2.59Z"/><path class="cls-1" d="M177.85,12.62a3.83,3.83,0,1,0-3.69,6.72,3.83,3.83,0,0,0,3.69-6.72,1.5,1.5,0,0,0-1.51,2.59c.9.53.35,2-.66,1.54s-.31-2,.66-1.54a1.54,1.54,0,0,0,2.05-.54A1.51,1.51,0,0,0,177.85,12.62Z"/><path class="cls-1" d="M192.56,15.17,195.28,24c.57,1.84,3.47,1.05,2.89-.8l-2.72-8.78c-.57-1.84-3.47-1.05-2.89.8Z"/><path class="cls-1" d="M195.39,22.82,189.48,34c-.9,1.71,1.69,3.22,2.59,1.51L198,24.33c.9-1.71-1.69-3.22-2.59-1.51Z"/><path class="cls-1" d="M193.36,35.82a3.75,3.75,0,1,0-2.53,4.66,3.82,3.82,0,0,0,2.53-4.66c-.48-1.87-3.37-1.08-2.89.8.23.91-1,1.47-1.41.53a.75.75,0,0,1,1.41-.53,1.54,1.54,0,0,0,1.85,1A1.51,1.51,0,0,0,193.36,35.82Z"/><path class="cls-1" d="M160.18,21l17.25,9.09c1.71.9,3.22-1.69,1.51-2.59l-17.25-9.09c-1.71-.9-3.22,1.69-1.51,2.59Z"/><path class="cls-1" d="M178.68,30.29l3.93-1.22c1.84-.57,1.05-3.47-.8-2.89l-3.93,1.22c-1.84.57-1.05,3.47.8,2.89Z"/><path class="cls-1" d="M186.12,23.2a3.83,3.83,0,1,0,1.44,5.17,3.86,3.86,0,0,0-1.44-5.17,1.5,1.5,0,0,0-1.51,2.59c.84.5.24,1.92-.66,1.54s-.2-1.94.66-1.54a1.54,1.54,0,0,0,2.05-.54A1.51,1.51,0,0,0,186.12,23.2Z"/><path class="cls-1" d="M152.75,69.26a3.75,3.75,0,1,0-2.53,4.66,3.82,3.82,0,0,0,2.53-4.66c-.48-1.87-3.37-1.08-2.89.8.23.91-1,1.47-1.41.53a.75.75,0,0,1,1.41-.53,1.54,1.54,0,0,0,1.85,1A1.51,1.51,0,0,0,152.75,69.26Z"/><path class="cls-1" d="M144.62,82.33l4.82-9.14c.9-1.71-1.69-3.22-2.59-1.51L142,80.81c-.9,1.71,1.69,3.22,2.59,1.51Z"/><path class="cls-2" d="M6,22V36.2l2.66-2.12A8.11,8.11,0,0,1,13.93,32h5.54a8,8,0,0,1,5.44,2.09l2.88,2.48a7.69,7.69,0,0,1,2,3,10.28,10.28,0,0,1,.77,3.82V55.6a9.57,9.57,0,0,1-.72,3.49,7.25,7.25,0,0,1-1.66,2.7l-2.63,2.48A9.18,9.18,0,0,1,22.64,66a8.6,8.6,0,0,1-3.17.77H14.29q-3.78,0-8.24-4.21v1.19a2.92,2.92,0,0,1-.88,2.14A2.92,2.92,0,0,1,3,66.8a2.92,2.92,0,0,1-2.14-.88A2.91,2.91,0,0,1,0,63.77V22a2.89,2.89,0,0,1,.9-2.14A2.93,2.93,0,0,1,3,19a2.92,2.92,0,0,1,2.14.88A2.92,2.92,0,0,1,6,22ZM19,38.11H14.83a3.43,3.43,0,0,0-2.3.68L7.09,43.43a3.58,3.58,0,0,0-1,2.81v6.84A3.17,3.17,0,0,0,7.24,55.6l4.86,4.1a3.2,3.2,0,0,0,2.2,1h4.93A2.67,2.67,0,0,0,21,60l2.41-2.16a2.4,2.4,0,0,0,1-2.05V43.07a2.8,2.8,0,0,0-1-2.3l-2.2-1.84A3.44,3.44,0,0,0,19,38.11Z"/><path class="cls-2" d="M68.8,66.73H50.37a3,3,0,0,1,0-6h6.19V38.11H50.44a2.88,2.88,0,0,1-2.14-.9,2.93,2.93,0,0,1-.88-2.12,3,3,0,0,1,.88-2.18A2.86,2.86,0,0,1,50.44,32h9.22a2.86,2.86,0,0,1,2.14.92,3,3,0,0,1,.88,2.18v25.6h6a3,3,0,0,1,2.18.88,3,3,0,0,1,0,4.28A2.93,2.93,0,0,1,68.8,66.73ZM56.49,16.29h3.17a3,3,0,0,1,3,3V21.9a3,3,0,0,1-.88,2.18,2.86,2.86,0,0,1-2.14.92H56.41a2.87,2.87,0,0,1-2.18-.94A2.83,2.83,0,0,1,53.39,22l.07-2.66a3,3,0,0,1,3-3Z"/><path class="cls-2" d="M103.23,39.08,95,44.44V63.77a3,3,0,0,1-6,0V35.08a3,3,0,0,1,.88-2.18,2.94,2.94,0,0,1,4.27,0,3,3,0,0,1,.9,2.18v2l5.52-3.35A11.45,11.45,0,0,1,106.76,32h2.81a8.65,8.65,0,0,1,6.24,2.56,9,9,0,0,1,2.78,6.3l.83,22.93a2.78,2.78,0,0,1-.86,2.12,2.94,2.94,0,0,1-2.16.9A3,3,0,0,1,114.3,66a2.93,2.93,0,0,1-.94-2.21l-.9-22.57Q112.36,38,109.15,38h-3A5.46,5.46,0,0,0,103.23,39.08Z"/><path class="cls-2" d="M222.45,63.77V22a2.82,2.82,0,0,1,.88-2.09A3,3,0,0,1,228.5,22V37.31l4.86-3.17a11.43,11.43,0,0,1,5.9-2.09H243a8.72,8.72,0,0,1,6.37,2.65,9.11,9.11,0,0,1,2.77,6.43l.76,22.64a2.77,2.77,0,0,1-.86,2.14,3,3,0,0,1-2.16.88,2.8,2.8,0,0,1-2.12-.92,3.13,3.13,0,0,1-.9-2.11l-.76-22.72a3,3,0,0,0-.94-2.12A3,3,0,0,0,243,38h-3.38a4.68,4.68,0,0,0-2.52.9l-8.6,5.62V63.77a3,3,0,1,1-6,0Z"/><path class="cls-2" d="M276.07,45h11.86a13.41,13.41,0,0,1,2.81.43l-.07-4.28a3,3,0,0,0-3-3H276.13a3,3,0,1,1,0-6h11.5a8.76,8.76,0,0,1,6.4,2.63,9.12,9.12,0,0,1,2.76,6.44l.76,22.64a2.89,2.89,0,0,1-.9,2.14,2.94,2.94,0,0,1-2.12.88,3,3,0,0,1-2.2-.88,2.89,2.89,0,0,1-.9-2.14l-5.12,3H276.07a9.1,9.1,0,0,1-9.16-9.14V54.13A9.16,9.16,0,0,1,276.07,45Zm15.12,11.77L291,54.2a3.06,3.06,0,0,0-.9-2.16,2.89,2.89,0,0,0-2.12-.86H276.06a3,3,0,0,0-3,3v3.38a3.07,3.07,0,0,0,3,3h8.54Z"/><path class="cls-2" d="M339.09,66.8H326.17a8.7,8.7,0,0,1-5.83-2.05l-5.87-5.11a7.81,7.81,0,0,1-2.81-6.34V45.41a8.15,8.15,0,0,1,3.17-6.7l5.29-4.57a8.5,8.5,0,0,1,5.47-2.09h13.57a3,3,0,1,1,0,6h-13a3.53,3.53,0,0,0-2.34,1L319,43.22a3.36,3.36,0,0,0-1.19,2.7V53.3a2.59,2.59,0,0,0,.94,2L324,59.85a3.85,3.85,0,0,0,2.66.9h12.38a2.94,2.94,0,0,1,2.12.88,2.89,2.89,0,0,1,.9,2.14,3,3,0,0,1-3,3Z"/><path class="cls-2" d="M356.12,63.77V22a3,3,0,0,1,.88-2.2,3,3,0,0,1,4.28,0,3,3,0,0,1,.88,2.2v24.7l16.27-13.83a3.49,3.49,0,0,1,2.27-.86,2.84,2.84,0,0,1,2.16.92,3.08,3.08,0,0,1,.86,2.18,2.66,2.66,0,0,1-.93,2.13L370.12,48l15.63,13.72a2.42,2.42,0,0,1,.94,2,3.11,3.11,0,0,1-.86,2.14,2.75,2.75,0,0,1-2.12,1,3.34,3.34,0,0,1-2.23-.83L365.35,52l-3.18,2.67v9.14a3,3,0,1,1-6,0Z"/><path class="cls-2" d="M431.11,43.43v7.31a3.08,3.08,0,0,1-3,3H406.7v1.76A3.27,3.27,0,0,0,408,58.16l1.76,1.48a4.54,4.54,0,0,0,2.74,1.12h15.55a2.93,2.93,0,0,1,2.12.88,3,3,0,0,1,0,4.27,2.92,2.92,0,0,1-2.11.9H412.14a9.33,9.33,0,0,1-3.33-.67,8.73,8.73,0,0,1-2.57-1.39l-2.7-2.38a7.71,7.71,0,0,1-2.11-2.81,7.86,7.86,0,0,1-.85-3.31V42.39a8.37,8.37,0,0,1,.92-3.2,8.3,8.3,0,0,1,2.32-3.13l2.52-2a8.54,8.54,0,0,1,5.51-2h8.5a8.76,8.76,0,0,1,6,2.66l2.27,2.16Q431.11,39.08,431.11,43.43ZM406.77,43v4.68h18.36V43.43a3.24,3.24,0,0,0-1-2.59l-1.76-1.55a4.09,4.09,0,0,0-2.45-1.12h-7.6a3.87,3.87,0,0,0-2.56,1L408,40.62A2.81,2.81,0,0,0,406.77,43Z"/><path class="cls-2" d="M459.5,39.08l-8.26,5.36V63.77a3,3,0,0,1-6,0V35.08a3,3,0,0,1,.88-2.18,2.94,2.94,0,0,1,4.27,0,3,3,0,0,1,.9,2.18v2l5.52-3.35A11.45,11.45,0,0,1,463,32h2.81a8.65,8.65,0,0,1,6.24,2.56,9,9,0,0,1,2.78,6.3l.83,22.93a2.78,2.78,0,0,1-.86,2.12,3,3,0,0,1-2.16.9,3,3,0,0,1-2.09-.81,2.94,2.94,0,0,1-.94-2.21l-.9-22.57Q468.62,38,465.41,38h-3A5.46,5.46,0,0,0,459.5,39.08Z"/></g></g></svg>