<svg xmlns="http://www.w3.org/2000/svg" viewBox="0 0 287.02 545.6"><defs><style>.cls-1{fill:#070308;}</style></defs><title>Recurso 1</title><g id="Capa_2" data-name="Capa 2"><g id="Capa_3" data-name="Capa 3"><path class="cls-1" d="M5.63,71.09h119c7.24,0,7.25-11.25,0-11.25H5.63c-7.24,0-7.25,11.25,0,11.25Z"/><path class="cls-1" d="M11.25,199.89V65.46c0-7.24-11.25-7.25-11.25,0V199.89c0,7.24,11.25,7.25,11.25,0Z"/><path class="cls-1" d="M124.59,194.26H5.63c-7.24,0-7.25,11.25,0,11.25h119c7.24,0,7.25-11.25,0-11.25Z"/><path class="cls-1" d="M42.17,540V199.89c0-7.24-11.25-7.25-11.25,0V540c0,7.24,11.25,7.25,11.25,0Z"/><path class="cls-1" d="M84.94,534.35H36.54c-7.24,0-7.25,11.25,0,11.25H84.94c7.24,0,7.25-11.25,0-11.25Z"/><path class="cls-1" d="M79.31,199.89v247.7c0,7.24,11.25,7.25,11.25,0V199.89c0-7.24-11.25-7.25-11.25,0Z"/><path class="cls-1" d="M79.31,22.43V64.25c0,7.24,11.25,7.25,11.25,0V22.43c0-7.24-11.25-7.25-11.25,0Z"/><path class="cls-1" d="M36.54,28.05H84.94c7.24,0,7.25-11.25,0-11.25H36.54c-7.24,0-7.25,11.25,0,11.25Z"/><path class="cls-1" d="M42.17,64.25V22.43c0-7.24-11.25-7.25-11.25,0V64.25c0,7.24,11.25,7.25,11.25,0Z"/><path class="cls-1" d="M121.75,204.74l90.19,52.07,12.84,7.41c6.28,3.63,12-6.09,5.68-9.71l-90.19-52.07L127.43,195c-6.28-3.63-12,6.09-5.68,9.71Z"/><path class="cls-1" d="M127.43,70.32l90.19-52.07,12.84-7.41c6.27-3.62.61-13.34-5.68-9.71L134.59,53.19,121.75,60.6c-6.27,3.62-.61,13.34,5.68,9.71Z"/><path class="cls-1" d="M225.07,9.62c50.7,51.11,65.61,130.32,35.16,195.94a177.6,177.6,0,0,1-35.16,50.34c-5.1,5.15,2.85,13.1,8,8,54.15-54.59,69.35-138.25,37.5-208.3A186.37,186.37,0,0,0,233,1.67c-5.11-5.15-13.06,2.81-8,8Z"/><path class="cls-1" d="M5.63,105.21H60.74C68,105.21,68,94,60.74,94H5.63c-7.24,0-7.25,11.25,0,11.25Z"/><path class="cls-1" d="M83.6,99.58c-.49,10.41-16.25,10.52-16.25,0s15.75-10.42,16.25,0c.34,7.21,11.59,7.25,11.25,0-.5-10.51-8.48-19.37-19.37-19.37a19.37,19.37,0,1,0,0,38.75c10.9,0,18.88-8.87,19.38-19.37C95.19,92.34,83.94,92.36,83.6,99.58Z"/><path class="cls-1" d="M163.66,47.32l39,39c5.13,5.13,13.08-2.83,8-8l-39-39c-5.13-5.13-13.08,2.83-8,8Z"/><path class="cls-1" d="M201.21,82.55v76c0,7.24,11.25,7.25,11.25,0v-76c0-7.24-11.25-7.25-11.25,0Z"/><path class="cls-1" d="M212.58,178c-7.69,7.09-18.92-4.06-11.49-11.49s18.59,3.8,11.49,11.49c-4.9,5.32,3,13.29,8,8,7.15-7.76,7.64-19.7,0-27.4a19.37,19.37,0,1,0-27.4,27.4c7.67,7.67,19.66,7.14,27.4,0C225.87,181.08,217.9,173.14,212.58,178Z"/><path class="cls-1" d="M5.63,167.62H123.19c7.24,0,7.25-11.25,0-11.25H5.63c-7.24,0-7.25,11.25,0,11.25Z"/><path class="cls-1" d="M127.49,166l17.45-17.45c5.13-5.13-2.83-13.08-8-8L119.54,158c-5.13,5.13,2.83,13.08,8,8Z"/><path class="cls-1" d="M157,132.66c-.49,10.41-16.25,10.52-16.25,0s15.75-10.42,16.25,0c.34,7.21,11.59,7.25,11.25,0-.5-10.51-8.48-19.37-19.37-19.37a19.37,19.37,0,0,0,0,38.75c10.9,0,18.88-8.87,19.38-19.37C168.57,125.42,157.32,125.44,157,132.66Z"/><path class="cls-1" d="M90.68,469.61c-7.69,7.09-18.92-4.06-11.49-11.49s18.59,3.8,11.49,11.49c-4.9,5.32,3,13.29,8,8,7.15-7.76,7.64-19.7,0-27.4a19.38,19.38,0,0,0-27.4,27.4c7.67,7.67,19.66,7.14,27.4,0C104,472.64,96,464.7,90.68,469.61Z"/><path class="cls-1" d="M90.56,540V477.61c0-7.24-11.25-7.25-11.25,0V540c0,7.24,11.25,7.25,11.25,0Z"/></g></g></svg>