<?xml version="1.0" encoding="UTF-8" standalone="no"?>
<!-- Created with Inkscape (http://www.inkscape.org/) -->

<svg
   xmlns:dc="http://purl.org/dc/elements/1.1/"
   xmlns:cc="http://creativecommons.org/ns#"
   xmlns:rdf="http://www.w3.org/1999/02/22-rdf-syntax-ns#"
   xmlns:svg="http://www.w3.org/2000/svg"
   xmlns="http://www.w3.org/2000/svg"
   xmlns:sodipodi="http://sodipodi.sourceforge.net/DTD/sodipodi-0.dtd"
   xmlns:inkscape="http://www.inkscape.org/namespaces/inkscape"
   version="1.1"
   id="svg815"
   width="154.42609"
   height="425.47556"
   viewBox="0 0 154.42609 425.47556"
   sodipodi:docname="42c342c3.svg"
   inkscape:version="0.92.3 (2405546, 2018-03-11)">
  <metadata
     id="metadata821">
    <rdf:RDF>
      <cc:Work
         rdf:about="">
        <dc:format>image/svg+xml</dc:format>
        <dc:type
           rdf:resource="http://purl.org/dc/dcmitype/StillImage" />
        <dc:title />
      </cc:Work>
    </rdf:RDF>
  </metadata>
  <defs
     id="defs819" />
  <sodipodi:namedview
     pagecolor="#ffffff"
     bordercolor="#666666"
     borderopacity="1"
     objecttolerance="10"
     gridtolerance="10"
     guidetolerance="10"
     inkscape:pageopacity="0"
     inkscape:pageshadow="2"
     inkscape:window-width="1920"
     inkscape:window-height="986"
     id="namedview817"
     showgrid="false"
     inkscape:zoom="0.8677207"
     inkscape:cx="83.74722"
     inkscape:cy="379.36752"
     inkscape:window-x="2869"
     inkscape:window-y="-11"
     inkscape:window-maximized="1"
     inkscape:current-layer="svg815" />
  <path
     style="fill:#000000"
     d="m 51.374673,398.62467 -48.7286095,-26.6491 -0.02139,-14.6659 -0.02139,-14.6658 47.5811725,-0.3342 c 55.176394,-0.3875 50.418834,-0.61173 50.418834,-0.61173 v -18.22237 h 12.5 12.5 v 6.4349 c 0,3.5392 -0.33501,10.49573 0.19488,11.88943 0,0 1.90005,-0.38263 14.01856,-0.10543 l 12.28656,0.2811 0.27673,14.75 0.27674,14.75 h -27.20538 c 0,0 0.15191,-2.0459 0.15191,29 v 25 l -12.75,-0.1009 -12.75,-0.1008 z m 48.936997,-4.95955 c 0,0 0.29162,-16.22514 0.29162,-22.23684 0,0 -0.23734,0.0473 -16.326254,0.0473 l -25.325788,0.13446 c 2.603091,2.1696 34.997305,21.80413 36.573295,21.83643 0.781695,0.016 4.787127,0.21865 4.787127,0.21865 z M 33.627527,312.87197 C 17.555608,308.55307 4.8698786,294.15317 1.1227222,275.97507 -2.4671932,258.5597 3.0349715,241.59274 16.16348,229.59402 c 12.74578,-11.64893 28.049918,-14.05843 43.632554,-6.86958 3.249649,1.49919 15.893287,11.23017 32.612235,25.09952 15.017751,12.45809 23.872721,19.11573 24.562361,19.11573 0.68963,0 8.62324,5.97444 8.62324,5.97444 0,0 -0.064,0.17035 0.2503,-28.93909 l 0.25912,-24 h 13 13 v 46.5 46.50003 l -12.59639,0.2787 -12.5964,0.2787 -37.403611,-31.1267 C 68.934906,265.28614 50.655236,250.64821 48.885402,249.87709 c -6.61619,-2.88271 -13.133611,-1.37985 -18.468501,4.25867 -5.120278,5.4117 -6.200175,12.73985 -2.923575,19.83931 3.67078,7.9535 8.442439,10.5 19.675057,10.5 h 7.4349 v 15 15 l -7.75,-0.066 c -4.2625,-0.036 -10.21409,-0.728 -13.225756,-1.5373 z M 32.532632,202.12837 C 18.105632,198.17311 5.3736166,184.36257 1.5074295,168.47504 -0.42676827,160.52673 -0.01830067,147.25839 2.3924449,139.7269 8.8498193,119.5532 25.832161,107.47504 47.739773,107.47504 h 5.86351 v 14.89738 14.89739 l -8.329019,0.35261 c -7.287265,0.30852 -8.7883,0.70304 -12.001052,3.15431 -5.142355,3.92353 -7.079089,8.05597 -7.122913,15.19831 -0.04537,7.39372 2.408377,12.06087 8.00871,15.23299 3.893102,2.20512 4.447655,2.23432 42.743934,2.25056 42.473877,0.018 41.939667,0.0861 47.054927,-5.9931 7.34345,-8.72719 5.08561,-21.71798 -4.77947,-27.4993 -3.52922,-2.06826 -5.55152,-2.49115 -11.91297,-2.49115 h -7.662142 v -15.13108 -15.13108 l 10.473272,0.46579 c 9.56458,0.42539 11.11718,0.78403 17.89466,4.13365 25.98464,12.84231 34.47373,47.21941 17.88466,72.42501 -4.5232,6.87259 -10.2307,11.75438 -18.25259,15.61197 l -6.5,3.12574 -42.000007,0.2032 c -31.10405,0.15049 -43.185752,-0.12188 -46.570651,-1.04987 z M 31.603283,93.893686 C 11.66551,88.638366 -3.0214412,63.399 0.53181443,40.49772 3.4142528,21.91995 14.227895,7.5503498 29.603283,1.8663898 c 5.470832,-2.02245001 20.606759,-2.33529001 26.738612,-0.55264 2.331237,0.67773 7.173109,3.24128 10.759716,5.69676 3.586607,2.45549 7.08067,4.4645302 7.764585,4.4645302 0.683915,0 3.382754,-1.5209702 5.997419,-3.3799302 C 90.262042,1.4130698 94.835373,0.02862979 107.60329,4.2978891e-4 121.28581,-0.02977021 126.72922,1.5212298 135.4363,7.9310198 142.00997,12.77028 148.34541,21.49712 151.60011,30.19608 c 2.69057,7.19119 3.6419,19.93134 2.05659,27.54154 -2.96212,14.21947 -13.14881,27.705266 -25.53269,33.801836 -5.88978,2.89952 -7.82387,3.32173 -17.1081,3.73464 l -10.4676,0.46555 0.27749,-14.88231 0.27749,-14.882296 6.5,-0.25578 c 9.0867,-0.35757 10.52812,-0.82311 14.96796,-4.83424 7.24696,-6.5472 7.67037,-18.19656 0.93998,-25.86206 -3.90428,-4.44672 -8.39347,-5.843 -17.33429,-5.39151 -6.08843,0.30745 -7.852752,0.81909 -10.937147,3.17167 -5.705155,4.35153 -6.924842,6.93925 -7.436473,15.77738 -0.252701,4.36526 -0.8059,8.15095 -1.229332,8.41264 -0.423432,0.2617 -6.171629,0.18536 -12.773772,-0.16963 L 61.796319,56.17806 61.449801,47.89913 C 61.066686,38.74584 59.658421,35.83921 53.613452,31.72504 48.925327,28.53433 39.27712,28.54635 34.524963,31.74884 25.261336,37.9916 23.070914,50.77407 29.785481,59.40665 c 3.502513,4.50301 5.991516,5.51993 14.817802,6.05403 l 8.5,0.51437 0.276733,14.749996 0.276733,14.75 -8.276733,-0.0658 c -4.552203,-0.0362 -10.751733,-0.7182 -13.776733,-1.51555 z"
     id="path4531"
     inkscape:connector-curvature="0"
     sodipodi:nodetypes="ccsccccsccccccsccccccccccccccsscscccccccccscsccccccsccscccccssscssccccssscsscccccsscssscscccsscssscccsscsccccccccc" />
</svg>
