<?xml version="1.0" encoding="UTF-8" standalone="no"?>
<!-- Created with Inkscape (http://www.inkscape.org/) -->

<svg
   xmlns:dc="http://purl.org/dc/elements/1.1/"
   xmlns:cc="http://creativecommons.org/ns#"
   xmlns:rdf="http://www.w3.org/1999/02/22-rdf-syntax-ns#"
   xmlns:svg="http://www.w3.org/2000/svg"
   xmlns="http://www.w3.org/2000/svg"
   xmlns:sodipodi="http://sodipodi.sourceforge.net/DTD/sodipodi-0.dtd"
   xmlns:inkscape="http://www.inkscape.org/namespaces/inkscape"
   version="1.1"
   id="svg815"
   width="1200"
   height="667"
   viewBox="0 0 1200 667"
   sodipodi:docname="42c3_bearbeitet.svg"
   inkscape:version="0.92.3 (2405546, 2018-03-11)">
  <metadata
     id="metadata821">
    <rdf:RDF>
      <cc:Work
         rdf:about="">
        <dc:format>image/svg+xml</dc:format>
        <dc:type
           rdf:resource="http://purl.org/dc/dcmitype/StillImage" />
        <dc:title></dc:title>
      </cc:Work>
    </rdf:RDF>
  </metadata>
  <defs
     id="defs819" />
  <sodipodi:namedview
     pagecolor="#ffffff"
     bordercolor="#666666"
     borderopacity="1"
     objecttolerance="10"
     gridtolerance="10"
     guidetolerance="10"
     inkscape:pageopacity="0"
     inkscape:pageshadow="2"
     inkscape:window-width="1920"
     inkscape:window-height="986"
     id="namedview817"
     showgrid="false"
     inkscape:zoom="1.7354414"
     inkscape:cx="953.65127"
     inkscape:cy="118.24274"
     inkscape:window-x="-11"
     inkscape:window-y="-11"
     inkscape:window-maximized="1"
     inkscape:current-layer="svg815" />
  <path
     style="fill:#000000"
     d="m 991.49901,665.53183 c -9.45786,-3.3713 -16.6275,-13.3471 -16.6275,-23.1353 0,-2.9563 0.88334,-7.6998 1.96297,-10.5412 1.07964,-2.8414 1.6658,-5.6587 1.30259,-6.2607 -0.36322,-0.6021 -7.20906,-9.4196 -15.21298,-19.5946 l -14.55258,-18.5 -0.5,-67.6356 -0.5,-67.6355 -15.00903,14.1355 c -8.25496,7.7746 -20.30164,19.1105 -26.77039,25.1911 l -11.76136,11.0554 1.70695,3.4217 c 2.18114,4.3722 2.84689,12.3483 1.46046,17.4971 -3.28532,12.2007 -17.83994,20.7787 -29.79431,17.5597 -22.65005,-6.099 -26.48775,-35.5022 -6.08665,-46.6338 4.46439,-2.436 6.41451,-2.8737 12.97134,-2.9113 l 7.71701,-0.044 33.03299,-30.9695 33.03299,-30.9694 v -57.8119 c 0,-45.4124 -0.2681,-57.8806 -1.25,-58.1317 -0.6875,-0.1759 -4.4,-1.0725 -8.25,-1.9925 -22.58615,-5.3975 -43.42895,-22.35195 -54.24467,-44.12503 -1.63927,-3.3 -3.50086,-7.60761 -4.13687,-9.57246 l -1.15637,-3.57245 -109.23105,-1.19 c -60.07707,-0.6545 -114.65109,-1.44937 -121.27561,-1.76639 l -12.04456,-0.57639 -10.87619,12.70637 c -7.52927,8.79626 -10.59284,13.07765 -9.95543,13.91288 4.93267,6.46354 9.71138,14.89978 12.06768,21.30397 2.57169,6.9897 2.85307,8.9872 2.85307,20.2545 0,15.1116 -2.26363,23.3176 -9.48265,34.376 -12.22801,18.7314 -32.64135,29.624 -55.51735,29.624 -18.73666,0 -33.76939,-6.2249 -47.03191,-19.4754 -12.62192,-12.6105 -18.46809,-26.605 -18.46809,-44.2089 0,-17.5466 5.7459,-31.25199 18.40642,-43.90366 4.73594,-4.73263 10.79012,-9.58216 14.59358,-11.68978 18.8119,-10.42426 43.25538,-10.86903 62.59449,-1.13896 3.73355,1.87846 7.03965,3.02619 7.34689,2.55052 0.30724,-0.47567 6.18362,-7.4915 13.05862,-15.59074 l 12.5,-14.72589 36,0.60604 c 66.65852,1.12217 210.63274,2.77746 210.97004,2.42556 0.18389,-0.19185 0.49086,-4.73667 0.68215,-10.09959 l 0.34781,-9.75078 -68.78086,7.8e-4 -68.78087,7.7e-4 -56.69692,-31.40184 -56.69693,-31.40184 -6.15478,6.15184 c -20.55479,20.54499 -51.43768,25.06274 -77.78428,11.3788 -38.65599,-20.07721 -46.40913,-70.03453 -15.6341,-100.738266 13.85398,-13.82188 29.75373,-19.72211 50.4254,-18.71234 18.01386,0.87995 30.21993,6.30162 43.19692,19.18712 8.80479,8.74271 14.01764,17.69136 16.89139,28.996626 2.21885,8.7289 1.96517,23.30813 -0.56229,32.31546 -1.14253,4.07172 -1.93003,7.51729 -1.75,7.65682 0.18003,0.13953 24.45695,13.59932 53.94873,29.91065 l 53.6214,29.65697 h 70.1286 c 57.95837,0 70.12859,-0.23261 70.12859,-1.34039 0,-2.16414 9.34915,-17.0931 14.11371,-22.53712 10.42108,-11.90719 26.83646,-22.06167 42.38629,-26.21995 9.62126,-2.57288 29.57509,-3.09269 39,-1.01597 39.11729,8.61926 66.46639,41.89643 66.49299,80.90559 0.016,23.63695 -7.4824,41.89184 -23.9191,58.23067 -4.7156,4.68756 -9.8143,9.4126 -11.3303,10.5 l -2.7565,1.9772 35.6105,61.5 c 19.5857,33.825 38.0709,65.7765 41.0782,71.0033 l 5.4678,9.5033 34.6782,13.1585 c 33.5226,12.7199 34.7615,13.1049 37.1782,11.552 5.7916,-3.7213 8.7257,-4.6211 15,-4.5997 9.8152,0.033 17.7248,5.0645 22.6117,14.3826 2.6745,5.0997 2.5176,16.2083 -0.3038,21.5 -5.9798,11.2155 -17.8829,16.5218 -29.4613,13.1334 -10.4126,-3.0473 -17.8466,-12.7092 -17.8466,-23.1951 v -5.169 l -30.75,-11.5885 c -16.9125,-6.3737 -31.3289,-11.7218 -32.0365,-11.8847 -0.7719,-0.1777 -12.4933,18.8634 -29.3068,47.6082 l -28.0202,47.9042 2.0567,4.7811 c 2.647,6.1531 2.7275,15.8371 0.1783,21.4491 -2.311,5.0877 -9.7938,11.7469 -14.9283,13.2852 -6.7817,2.0319 -13.3848,1.479 -19.31076,-1.6167 -17.5901,-9.1892 -18.25018,-33.8532 -1.17459,-43.8904 3.97135,-2.3344 6.07005,-2.8479 12.25335,-2.9979 l 7.4612,-0.1811 28.372,-48.5732 28.372,-48.5732 -24.4408,-42.2457 c -13.4424,-23.2352 -31.5572,-54.6207 -40.2551,-69.7457 -8.69786,-15.125 -16.12781,-27.8684 -16.51105,-28.3187 -0.38323,-0.4503 -3.82064,0.1302 -7.63869,1.2899 -3.81804,1.1597 -9.83964,2.4281 -13.38133,2.8186 l -6.43942,0.7102 -0.25363,133.0706 -0.25364,133.0706 14.14125,18.1794 14.14125,18.1794 h 6.8945 c 8.08806,0 12.13596,1.4745 17.60026,6.4112 14.0295,12.6748 9.2538,35.7296 -8.7144,42.0691 -5.2798,1.8629 -11.29366,1.8817 -16.42809,0.051 z M 574.75685,357.94013 c 20.01557,-4.6144 34.11341,-23.8213 31.6918,-43.1769 -0.70898,-5.6667 -6.10134,-17.9584 -8.07714,-18.4116 -0.55,-0.12614 -3.11468,2.3726 -5.69929,5.5528 l -4.6993,5.7822 1.49327,4.9067 c 4.49036,14.7547 -6.53372,30.2349 -22.24396,31.2353 -24.16077,1.5384 -36.43344,-26.873 -18.57673,-43.0055 6.98845,-6.31362 16.47824,-8.28693 25.73827,-5.35199 1.57866,0.50035 3.04969,-0.56388 6.82683,-4.93892 l 4.81458,-5.57671 -4.82684,-2.21699 c -4.04836,-1.85943 -6.60091,-2.21873 -15.82683,-2.22775 -9.94829,-0.01 -11.56698,0.25475 -16.93013,2.76637 -12.1071,5.66988 -20.14632,15.00469 -23.20528,26.94499 -7.21957,28.1807 20.09573,54.5016 49.52075,47.718 z M 973.1816,288.654 c 2.64554,-0.6347 4.81562,-1.50989 4.8224,-1.94486 0.007,-0.43497 -1.33718,-3.18201 -2.98655,-6.10454 -2.95985,-5.24458 -3.04857,-5.30563 -6.82239,-4.6955 l -3.82355,0.61818 -0.29569,6.73636 c -0.33664,7.66938 -0.35305,7.65966 9.10578,5.39036 z m -25.31009,-6.43148 v -6.77747 l -6.75,-2.89636 c -5.2019,-2.23208 -8.39896,-4.5766 -13.93977,-10.22252 L 919.99197,255 h -7.65525 -7.65525 l 2.74147,4.75 c 7.0099,12.14565 18.98207,22.16336 31.95921,26.74188 3.84415,1.35626 7.32686,2.47543 7.73936,2.48703 0.4125,0.0116 0.75,-3.02877 0.75,-6.75639 z M 1001.6359,273.25 c 11.4258,-11.14491 17.0122,-23.20603 17.948,-38.75 1.6416,-27.26966 -17.3726,-52.95315 -44.35673,-59.91482 -7.91492,-2.04197 -22.7964,-2.04197 -30.71132,0 -12.34358,3.18454 -28.85453,14.51618 -33.95088,23.30086 L 908.75844,201 h 8.86944 c 8.61136,0 8.95491,-0.0899 11.80654,-3.08921 12.42983,-13.07362 36.6257,-15.60881 53.6653,-5.62294 6.46242,3.78724 14.46787,12.84851 18.07028,20.45362 3.051,6.44088 3.2015,7.32496 3.2015,18.81039 0,11.88208 -0.052,12.15679 -3.6928,19.5 -2.22146,4.48063 -5.69494,9.41278 -8.71811,12.37919 l -5.0254,4.93105 3.19898,5.81895 c 1.75945,3.20042 3.5101,5.81895 3.89034,5.81895 0.38024,0 3.80543,-3.0375 7.61139,-6.75 z m -86.75338,-41 c 0.006,-3.7125 0.28993,-8.4375 0.63084,-10.5 l 0.61983,-3.75 h -7.07182 c -4.13569,0 -7.35886,0.46443 -7.76315,1.11859 -0.38023,0.61523 -0.91775,5.0896 -1.19448,9.94304 l -0.50315,8.82446 5.38546,0.37197 c 2.962,0.20459 6.39796,0.45522 7.63546,0.55696 2.12841,0.17498 2.25059,-0.17979 2.26101,-6.56502 z M 590.01303,152.30467 c 6.0168,-2.82496 12.86846,-7.70031 12.85004,-9.14356 -0.005,-0.36361 -2.9133,-2.20402 -6.46369,-4.0898 l -6.45525,-3.42869 -5.28631,2.92193 c -4.42224,2.44433 -6.43049,2.92304 -12.28631,2.92869 -5.83086,0.006 -7.77574,-0.44927 -11.6446,-2.72363 -8.91536,-5.241 -13.09934,-12.42314 -13.04186,-22.38736 0.0593,-10.27349 5.73849,-18.965576 15.05718,-23.045116 4.66612,-2.04274 14.59947,-2.08902 19.26884,-0.0898 9.07647,3.88617 15.83745,14.123046 15.87741,24.040156 0.0169,4.18444 0.0636,4.23766 7.02004,7.99206 8.4267,4.54792 8.46299,4.51028 8.46299,-8.77957 0,-8.03597 -0.34002,-9.71774 -3.1744,-15.70071 -12.29959,-25.962746 -46.96652,-31.872646 -67.35647,-11.482706 -8.93896,8.93897 -13.26145,21.632536 -11.1792,32.829246 2.31831,12.46608 9.04508,22.15694 19.72402,28.41521 7.27886,4.2657 12.79139,5.47649 23.12757,5.07982 7.60794,-0.29197 10.20821,-0.85164 15.5,-3.33619 z M 53.871505,649.06483 c -11.779701,-3.5962 -20,-13.063 -20,-23.0327 v -4.0321 h 9.5 9.5 v 4.3257 c 0,4.9762 2.583494,8.1208 7.931914,9.6547 6.249795,1.7925 13.323685,-1.6811 14.622163,-7.1801 0.97499,-4.129 -2.407251,-6.7005 -16.684985,-12.6852 -6.947,-2.9119 -14.27256,-6.6476 -16.279023,-8.3015 -10.981412,-9.0518 -10.435751,-25.3863 1.101578,-32.9759 7.395966,-4.8653 12.399535,-6.1189 22.519403,-5.6419 10.778055,0.5081 17.285987,3.1894 22.695958,9.351 4.302815,4.9007 5.092992,7.3083 5.092992,15.5183 v 6.9349 h -9 -9 v -5.9843 c 0,-5.1323 -0.396084,-6.4275 -2.782441,-9.0983 -3.487965,-3.9037 -10.175396,-5.0248 -15.022201,-2.5185 -3.739275,1.9337 -5.195358,4.3535 -5.195358,8.6341 0,4.7796 4.131837,7.8743 17.724488,13.2753 17.394804,6.9117 23.275512,12.531 23.275512,22.2409 0,13.0274 -12.690227,22.5554 -29.787513,22.3648 -4.241868,-0.047 -8.837487,-0.4294 -10.212487,-0.8492 z m 184.000005,-0.6356 c -6.56476,-2.0882 -13.38638,-7.5302 -15.86973,-12.6601 -1.97765,-4.0853 -2.1287,-5.9721 -2.10831,-26.3349 0.0246,-24.525 0.64739,-27.4539 6.96927,-32.7734 14.68384,-12.3556 39.33659,-10.2764 49.46983,4.1723 l 3.03894,4.3332 0.3028,22.992 c 0.28869,21.9211 0.2011,23.2022 -1.88027,27.5017 -2.61082,5.3932 -9.38026,10.7059 -16.35403,12.8346 -6.11734,1.8673 -17.59276,1.8355 -23.5685,-0.065 z m 19,-14.3739 c 4.6515,-3.2526 4.9856,-5.1513 4.4087,-25.0553 -0.29492,-10.175 -0.7446,-19.5265 -0.99929,-20.7811 -0.61241,-3.0165 -6.0143,-6.7981 -10.51153,-6.2152 -4.92823,0.0591 -7.80644,0.36793 -10.39788,4.5743 l -0.26855,21.9945 c -0.29936,24.5168 -0.28023,24.5987 6.28178,26.8962 4.48012,1.5686 7.80794,1.1591 11.48677,-1.4134 z m 270.5,13.9704 c -6.44703,-2.557 -12.044,-7.2116 -14.52902,-12.0826 -1.78824,-3.5053 -1.97098,-5.9472 -1.97098,-26.3382 0,-12.3611 0.42992,-23.6055 0.95537,-24.9876 1.75869,-4.6257 7.88694,-10.2734 14.24212,-13.1255 11.93053,-5.3541 28.80337,-3.049 37.17174,5.0783 4.89035,4.7494 6.49023,8.1531 6.83802,14.5475 l 0.29275,5.3824 -9.25,0.2875 -9.25,0.2875 v -4.4011 c 0,-3.4116 -0.5873,-4.9885 -2.61208,-7.0133 -4.70249,-4.7025 -13.10836,-4.716 -17.51234,-0.028 -2.34738,2.4987 -2.37558,2.7817 -2.37558,23.8432 0,19.5716 0.15607,21.4869 1.9088,23.4236 4.16776,4.6053 13.99827,4.6234 18.15218,0.033 1.02344,-1.1309 2.10339,-4.1659 2.39991,-6.7444 l 0.53911,-4.6882 h 9 9 l 0.30798,3.1778 c 0.81541,8.4137 -4.89373,17.2667 -14.24452,22.0885 -6.99185,3.6055 -21.55701,4.2366 -29.06346,1.2594 z M 5.8715054,609.50003 v -39.5 h 9.4999996 9.5 v 39.5 39.5 h -9.5 -9.4999996 z m 144.5847646,1.0507 c -0.40095,-21.18741 -0.21092,-40.35933 -0.21092,-40.35933 0,0 4.03412,-0.19137 8.05514,-0.19137 h 7.31093 l 12.38005,21.5499 12.38004,21.5499 0.2695,-21.5499 0.2695,-21.5499 h 8.4805 8.4805 v 39.5438 l 0.11752,39.07372 -14.51831,-0.11752 -12.3044,-19.4548 c -11.84181,-18.7234 -15.34009,-23.6815 -13.98112,-19.8154 0.33443,0.9514 0.66485,10.1764 0.73428,20.5 l 0.12622,18.7702 -8.66971,0.0517 -8.19962,0.0517 z m 153.41524,5.4493 v -33 h -10 -10 v -6.5 -6.5 h 30 30 v 6.465 l -0.11752,7.0526 -9.6624,0.05 -10.72008,-0.0676 -0.26366,32.75 -0.26367,32.75 h -9.48633 -9.48634 z m 91.01349,32.78972 c 0,0 4.22262,-18.61472 9.36711,-39.78972 l 9.35362,-38.5 c 8.16255,0.10967 15.91305,0.0336 23.87067,-0.15361 l 8.83346,37.87441 c 4.90765,21.04207 9.50693,40.81102 9.50693,40.81102 0,0 -2.02971,-0.0318 -9.14623,-0.0318 h -9.41493 l -0.94206,-4.25 -0.94206,-4.72225 c -6.81864,-0.025 -13.6278,-0.17716 -20.44449,-0.0972 l -2.03745,8.99143 c 0,0 0.57212,0.078 -9.08545,0.078 -3.34857,-0.0722 -6.00767,-0.0642 -8.91912,-0.21026 z m 34.97124,-34.53972 c -1.50832,-7.5625 -3.96,-18.72083 -4.37624,-20.92083 0,0 -0.19759,0.59083 -3.68474,16.17083 -2.09274,9.35 -3.86437,18.42464 -3.86437,18.42464 0,0 3.1367,0.0754 7.30419,0.0754 h 7.36356 z m 152.01527,-4.75 v -39.5 h 19.3185 c 21.42334,0 26.47191,0.8923 33.38644,5.9012 6.18563,4.4808 8.62912,8.569 9.11203,15.2451 0.35362,4.8888 0.0131,6.468 -2.21468,10.2693 -1.44791,2.4707 -3.7105,4.98773 -4.72771,5.9597 -7.17388,6.8548 -9.32834,-4.07137 1.0308,5.3573 4.34226,5.4034 5.09462,8.8754 5.09462,23.5108 v 12.7566 h -9.5 -9.5 v -13.2775 c 0,-10.0444 -0.35683,-13.787 -1.46539,-15.3697 -2.39381,-3.4176 -7.74736,-5.3528 -14.80794,-5.3528 h -6.47108 c -0.10344,12.57677 -0.22663,22.57861 -0.16368,33.88277 l -10.19074,0.11723 h -8.90117 z m 39.63364,-10.5826 c 5.65993,-3.4981 5.71165,-9.1113 0.12065,-13.0924 -2.50856,-1.7862 -4.87148,-2.3103 -11.94086,-2.6483 l -8.81343,-0.4214 v 9.1223 9.1224 h 8.63197 c 7.00072,0 9.26876,-0.3936 12.00167,-2.0826 z m 34.36636,10.5826 v -39.5 h 9 9 v 39.5 39.5 h -9 -9 z m 32,0 v -39.5 h 10.4101 10.41011 l 6.83229,7.6338 6.83228,7.6339 7.10859,-7.6339 7.10858,-7.6338 h 10.14903 10.14902 v 39.5 39.5 h -9 -9 l -0.049,-29.25 -0.0489,-29.25 -8.03474,8.5 -8.03474,8.5 -7.91631,-8.391 -7.9163,-8.3909 v 29.1409 29.141 h -9.5 -9.5 v -39.5 z m 82,7.6508 c 0,-17.517 -0.29113,-38.67937 -0.29113,-38.67937 l -0.0567,-8.47143 h 26.49454 24.85326 v 6.5 6.5 h -16 -16 v 9 9 h 16 16 v 7 7 h -16 -16 v 10 10 h 16 16 v 7 7 h -25.5 -25.5 z m -749.236341,-94.9008 -0.263664,-32.75 -10.25,-0.285 -10.21489391,0.008 -0.0351057,-6.75755 v -6.465 h 29.99999961 30 v 6.5 6.5 h -10.5 -10.5 v 33 33 h -8.986336 -8.986335 z m 46.236336,-6.75 v -39.5 h 9.5 9.5 v 39.5 39.5 h -9.5 -9.5 z m 33,0 v -39.5 h 10.172705 10.17271 l 6.9163,7.506 6.91631,7.506 7.00977,-7.506 7.00977,-7.506 h 10.40122 10.40122 v 39.5375 39.5375 l -9.25,-0.2875 -9.25,-0.2875 -0.5,-28.8166 -0.5,-28.8165 -7.31787,8.0665 c -4.02482,4.4366 -7.62482,8.0637 -8,8.0602 -0.37517,0 -3.83213,-3.5712 -7.68213,-7.9283 -3.85,-4.3571 -7.3375,-7.9542 -7.75,-7.9937 -0.4125,-0.039 -0.75,12.9784 -0.75,28.9284 v 29 h -9 -9.000005 z m 82.000005,0.034 v -39.4666 l 25.07824,-0.0509 24.92325,-0.051 -7.4e-4,6.25963 -0.0782,7.11207 -15.75122,0.0429 -15.36376,0.12041 -6.9e-4,8.5 -6.8e-4,8.5 15.84692,0.035 15.84692,0.035 0.0626,7.65493 0.0626,7.34496 -15.66805,0.0425 -16.13303,-0.11247 v 9.5 9.5 l 16.08791,0.2748 16.0879,0.2747 v 6.9753 6.9752 h -25.5 -25.5 z m 124.35992,39.31105 c 0,0 -0.35992,-15.72795 -0.35992,-33.51125 v -32.3333 h -10 -10 v -6.5 -6.5 h 29 c 15.95,0 29.3375,-0.1125 29.75,-0.25 0.4125,-0.1375 0.88306,2.7875 1.04569,6.5 l 0.29569,6.75 H 335.4172 324.87151 v 33 33 h -8.83333 c 0,0 -9.44009,0.21125 -9.80675,-0.15545 z m 46.64008,-39.17795 c 0,-21.6333 0.18605,-39.5208 0.41345,-39.75 0.22739,-0.2291 10.01489,-0.1875 21.75,0.092 19.91368,0.4752 21.63664,0.6658 25.83655,2.8578 5.29195,2.762 10.59823,7.5405 12.58532,11.3334 2.31115,4.4116 1.80245,12.4623 -1.10046,17.4157 -1.38332,2.3605 -3.49891,4.9809 -4.70131,5.8231 l -2.18618,1.5312 2.64827,2.7649 c 4.79352,5.0045 5.75436,8.9673 5.75436,23.7326 v 13.5322 h -9.5 -9.5 v -13.8257 c 0,-13.0639 -0.12398,-13.9386 -2.25,-15.8751 -3.84604,-3.503 -6.38033,-4.2992 -13.68426,-4.2992 h -7.06574 v 17 17 h -9.5 -9.5 z m 39.02749,-10.3129 c 5.52563,-3.6792 6.60396,-8.4768 2.72251,-12.1128 -3.42253,-3.2061 -7.15965,-4.2409 -15.3151,-4.2409 h -7.4349 v 9 9 h 8.77749 c 6.481,0 9.42439,-0.4308 11.25,-1.6463 z m 29.97686,48.8963 c 0.002,-0.4125 4.20859,-18.075 9.3471,-39.25 l 9.34274,-38.5 11.96655,-0.2793 11.96655,-0.2793 3.15422,13.7793 c 6.19854,27.0785 14.61157,63.03699 15.14339,64.79479 l -9.09308,0.27301 -9.22519,0.1205 -0.99652,-4.659 -0.89427,-4.25 h -10.33887 -10.33887 l -0.61199,2.75 c -1.47488,6.6273 -1.29105,6.0455 -1.29105,6.0455 0,0 -18.1331,-0.133 -18.13071,-0.5455 z m 37.20083,-20.36401 c 3.7e-4,-0.9625 -1.64022,-10.58109 -3.39582,-19.37509 l -3.192,-15.989 -3.75891,16.989 c -2.0674,9.344 -4.08805,17.7356 -4.11543,18.1481 -0.0274,0.4125 3.40698,0.341 7.25698,0.341 5.99974,0 7.20518,-0.11401 7.20518,-0.11401 z m 38.35418,10.89731 c -3.80592,-14.2661 -18.57878,-68.46479 -18.57878,-68.46479 0,0 0.80715,-0.31851 9.45203,-0.31851 5.26207,0 9.15839,-0.26895 9.15839,0.0272 0,1.3779 11.72926,48.62595 12.33699,49.75715 0.37954,0.7065 3.3635,-10.2041 6.63104,-24.2456 l 5.94097,-25.53 h 9.26905 9.26905 l -0.59885,2.3861 c -0.32938,1.3123 -4.99996,18.9748 -10.37908,39.25 l -9.78021,36.8639 -9.9886,0.2833 -9.98861,0.2833 -2.74339,-10.2833 z m 52.44064,-29.2833 v -39.5 h 24.5 c 13.475,0 25.85999,0.19425 26.27249,0.0567 0.4125,-0.1375 -0.36511,-2.67111 0.0232,6.19325 l -0.0111,6.75 h -15.7389 -16.04569 v 8.9746 8.9746 l 15.75,0.2754 15.75,0.2754 0.29569,6.75 0.29569,6.75 H 584.9172 568.87151 v 10 10 h 16 16 v 7 7 h -25.5 -25.5 z m 65,0 v -39.5 h 9 9 v 32.5 32.5 h 16 16 v 7 7 h -25 -25 z m -559.228615,-90.3509 -48.7286098,-26.6491 -0.02139,-14.6659 -0.02139,-14.6658 47.5811728,-0.3342 c 55.176392,-0.3875 50.418832,-0.61173 50.418832,-0.61173 v -18.22237 h 12.5 12.5 v 6.4349 c 0,3.5392 -0.33501,10.49573 0.19488,11.88943 0,0 1.90005,-0.38263 14.01856,-0.10543 l 12.28656,0.2811 0.27673,14.75 0.27674,14.75 H 129.7196 c 0,0 0.15191,-2.0459 0.15191,29 v 25 l -12.75,-0.1009 -12.75,-0.1008 z m 48.936995,-4.95955 c 0,0 0.29162,-16.22514 0.29162,-22.23684 0,0 -0.23734,0.0473 -16.326252,0.0473 L 63.21947,398.135 c 2.603091,2.1696 34.997305,21.80413 36.573295,21.83643 0.781695,0.016 4.787125,0.21865 4.787125,0.21865 z m 195.52647,19.32205 c -47.84955,-8.7333 -82.91606,-45.6063 -89.25727,-93.8554 -0.7288,-5.5453 -0.96536,-47.53 -0.739,-131.15623 0.33121,-122.362226 0.34414,-123.041946 2.49364,-131.089196 10.04773,-37.61646 34.77995,-65.11142 69.91819,-77.72847 16.68325,-5.99044 3.90914,-5.6827100014 235.71006,-5.67831 181.53459,0.003 213.43794,0.21536 221.13953,1.46894 27.79961,4.52491 50.94025,19.24921 65.94914,41.96319 6.66274,10.08316 9.52281,15.78812 13.31729,26.56385 6.56213,18.63543 6.73357,20.32435 6.73357,66.335686 v 41.83569 l -2.80576,2.41431 c -3.68303,3.16918 -7.69355,3.10793 -10.76993,-0.16448 l -2.42431,-2.57879 -0.54345,-43.67121 -0.54346,-43.671206 -2.76863,-9 C 795.20246,47.974284 773.97932,26.590564 743.2485,18.761914 l -8.87699,-2.26141 h -215.5 -215.5 l -8.0655,2.20904 c -16.31555,4.46863 -28.57819,11.37237 -40.29364,22.68491 -16.37779,15.81452 -25.82105,34.93056 -28.14361,56.97123 -1.34546,12.768176 -1.30181,230.407946 0.0489,243.778846 3.86744,38.2847 31.15582,69.8949 69.13597,80.0856 l 8.31789,2.2318 208,0.3087 c 147.11059,0.2182 210.48827,-0.013 216.5,-0.7912 39.80417,-5.1502 71.94121,-35.8477 78.94902,-75.4126 0.59507,-3.3597 1.05097,-20.4072 1.05097,-39.2997 0,-39.13846 0.24228,-40.26663 8.64753,-40.26663 3.74474,0 6.02113,1.61075 7.24729,5.12811 1.37402,3.94154 1.45799,55.28892 0.11262,68.87192 -2.53145,25.5578 -13.46907,48.6561 -31.48942,66.5 -13.69388,13.5598 -30.20089,23.0394 -49.31221,28.3188 l -9.70581,2.6812 -213.5,0.1688 c -173.57271,0.1372 -214.85868,-0.079 -220.76515,-1.1572 z m 0.26515,-23.9839 c -26.25314,-5.8068 -47.56338,-22.7712 -59.07477,-47.0277 -8.51593,-17.9446 -7.81871,-5.5907 -8.16765,-144.72154 -0.30003,-119.62404 -0.24537,-124.039346 1.65026,-133.318626 3.67075,-17.96859 15.25895,-37.05459 29.26446,-48.19911 8.25291,-6.56703 19.0154,-12.31224 29.8277,-15.92254 l 8.5,-2.83821 209.5,-0.30597 c 153.28329,-0.22387 211.46512,6e-5 216.82331,0.8345 32.86016,5.11739 58.75854,27.92873 68.87362,60.664 l 2.72147,8.80747 0.0408,41.889256 c 0.0378,38.83269 -0.0869,41.96993 -1.7092,42.99488 -1.2757,0.80597 -2.2243,0.80682 -3.5,0.003 -1.6045,-1.01085 -1.79728,-4.50232 -2.31872,-41.99489 -0.60936,-43.814396 -0.67505,-44.418366 -6.35084,-58.386556 -9.6076,-23.64445 -33.21467,-42.01305 -59.10389,-45.98857 -4.84083,-0.74335 -70.65121,-0.97944 -214.97655,-0.77122 -197.54583,0.28501 -208.29975,0.39127 -213.96394,2.11414 -29.51339,8.97709 -50.15604,31.15009 -55.98918,60.13996 -1.43718,7.142616 -1.5782,21.075056 -1.31581,129.999996 l 0.29389,122.00003 2.30272,7.4726 c 4.12371,13.3819 9.64418,22.552 19.64217,32.6276 12.3603,12.4563 23.70277,18.7669 39.39746,21.9197 6.74028,1.354 32.18569,1.5009 217.63269,1.2567 l 210,-0.2766 7,-2.3499 c 22.29625,-7.4846 39.48151,-22.6 48.62722,-42.7704 5.6942,-12.5583 6.11897,-15.9315 6.77129,-53.7724 0.5474,-31.75513 0.75885,-34.99183 2.35149,-35.99491 1.27505,-0.80306 2.22495,-0.80272 3.5,0.001 1.59422,1.0052 1.77638,3.85326 2.04631,31.99491 0.31978,33.338 -0.37036,41.8486 -4.34004,53.52 -8.90054,26.1687 -29.07318,45.6557 -56.95627,55.0204 l -7,2.351 -213,0.1774 c -173.82207,0.1448 -214.1036,-0.067 -219,-1.1497 z M 37.895749,339.39693 C 21.82383,335.07803 9.1381003,320.67813 5.3909439,302.50003 1.8010285,285.08466 7.3031932,268.1177 20.431702,256.11898 c 12.74578,-11.64893 28.049918,-14.05843 43.632554,-6.86958 3.249649,1.49919 15.893287,11.23017 32.612235,25.09952 15.017749,12.45809 23.872719,19.11573 24.562359,19.11573 0.68963,0 8.62324,5.97444 8.62324,5.97444 0,0 -0.064,0.17035 0.2503,-28.93909 l 0.25912,-24 h 13 13 v 46.5 46.50003 l -12.59639,0.2787 -12.5964,0.2787 -37.403609,-31.1267 C 73.203128,291.8111 54.923458,277.17317 53.153624,276.40205 c -6.61619,-2.88271 -13.133611,-1.37985 -18.468501,4.25867 -5.120278,5.4117 -6.200175,12.73985 -2.923575,19.83931 3.67078,7.9535 8.442439,10.5 19.675057,10.5 h 7.4349 v 15 15 l -7.75,-0.066 c -4.2625,-0.036 -10.21409,-0.728 -13.225756,-1.5373 z M 36.800854,228.65333 C 22.373854,224.69807 9.6418383,210.88753 5.7756512,195 3.8414534,187.05169 4.249921,173.78335 6.6606666,166.25186 13.118041,146.07816 30.100383,134 52.007995,134 h 5.86351 v 14.89738 14.89739 l -8.329019,0.35261 c -7.287265,0.30852 -8.7883,0.70304 -12.001052,3.15431 -5.142355,3.92353 -7.079089,8.05597 -7.122913,15.19831 -0.04537,7.39372 2.408377,12.06087 8.00871,15.23299 3.893102,2.20512 4.447655,2.23432 42.743934,2.25056 42.473875,0.018 41.939665,0.0861 47.054925,-5.9931 7.34345,-8.72719 5.08561,-21.71798 -4.77947,-27.4993 C 119.9174,164.42289 117.8951,164 111.53365,164 h -7.66214 v -15.13108 -15.13108 l 10.47327,0.46579 c 9.56458,0.42539 11.11718,0.78403 17.89466,4.13365 25.98464,12.84231 34.47373,47.21941 17.88466,72.42501 -4.5232,6.87259 -10.2307,11.75438 -18.25259,15.61197 l -6.5,3.12574 -42.000005,0.2032 c -31.10405,0.15049 -43.185752,-0.12188 -46.570651,-1.04987 z M 35.871505,120.41865 C 15.933732,115.16333 1.2467805,89.923964 4.8000361,67.022684 7.6824745,48.444914 18.496117,34.075314 33.871505,28.391354 c 5.470832,-2.02245 20.606759,-2.33529 26.738612,-0.55264 2.331237,0.67773 7.173109,3.24128 10.759716,5.69676 3.586607,2.45549 7.08067,4.46453 7.764585,4.46453 0.683915,0 3.382754,-1.52097 5.997419,-3.37993 9.398427,-6.68204 13.971758,-8.06648 26.739673,-8.09468 13.68252,-0.0302 19.12593,1.5208 27.83301,7.93059 6.57367,4.83926 12.90911,13.5661 16.16381,22.26506 2.69057,7.19119 3.6419,19.93134 2.05659,27.54154 -2.96212,14.21947 -13.14881,27.705266 -25.53269,33.801836 -5.88978,2.89952 -7.82387,3.32173 -17.1081,3.73464 l -10.4676,0.46555 0.27749,-14.88231 0.27749,-14.882296 6.5,-0.25578 c 9.0867,-0.35757 10.52812,-0.82311 14.96796,-4.83424 7.24696,-6.5472 7.67037,-18.19656 0.93998,-25.86206 -3.90428,-4.44672 -8.39347,-5.843 -17.33429,-5.39151 -6.08843,0.30745 -7.85275,0.81909 -10.937145,3.17167 -5.705155,4.35153 -6.924842,6.93925 -7.436473,15.77738 -0.252701,4.36526 -0.8059,8.15095 -1.229332,8.41264 -0.423432,0.2617 -6.171629,0.18536 -12.773772,-0.16963 l -12.003897,-0.64545 -0.346518,-8.27893 c -0.383115,-9.15329 -1.79138,-12.05992 -7.836349,-16.17409 -4.688125,-3.19071 -14.336332,-3.17869 -19.088489,0.0238 -9.263627,6.24276 -11.454049,19.02523 -4.739482,27.65781 3.502513,4.50301 5.991516,5.51993 14.817802,6.05403 l 8.5,0.51437 0.276733,14.749996 0.276733,14.75 -8.276733,-0.0658 c -4.552203,-0.0362 -10.751733,-0.7182 -13.776733,-1.51555 z"
     id="path4531"
     inkscape:connector-curvature="0"
     sodipodi:nodetypes="csccscccccccsccccccsccsccsscsccsssssssssscssscccccssssssssscssssscccccccccccccscccccccccscccccccsccccccscccccccscccccscscsscscsccssscsscccccssccccccscccscsccsccccsssccccccscscscscccscsssscccscccscccccccscccsccscscccccsccssccccscccsccccscccscccsccscccccccccccccccccccscsccccccccccscscccsccccccccccccccccccsccscsccccccccccscsccccccccscccscscccccccccccscccscccccccsccccccccccccccccccccccccsccccccccccccccccccccccccsccccccccccccccccccccccccccccccccccccccccccccscsccccccscccccccccccccccccccccccscccccssscccccccsccccccccscccscscccccsccccccsccccccscccccccccccccccsccccscsccccsccccccccsscccccccccccccccccccccccccccccccccccccsccccsccccccscccccccccccccsscsssscsscccsscccssssccsccsscssccscccsssscssscsccssssccscsccsccssccscccscccsccsscscccccccccscsccccccsccscccccssscssccccssscsscccccsscssscscccsscssscccsscsccccccccc" />
</svg>
