<?xml version="1.0" encoding="UTF-8" standalone="no"?>
<!-- Created with Inkscape (http://www.inkscape.org/) -->

<svg
   xmlns:dc="http://purl.org/dc/elements/1.1/"
   xmlns:cc="http://creativecommons.org/ns#"
   xmlns:rdf="http://www.w3.org/1999/02/22-rdf-syntax-ns#"
   xmlns:svg="http://www.w3.org/2000/svg"
   xmlns="http://www.w3.org/2000/svg"
   xmlns:sodipodi="http://sodipodi.sourceforge.net/DTD/sodipodi-0.dtd"
   xmlns:inkscape="http://www.inkscape.org/namespaces/inkscape"
   version="1.1"
   id="svg815"
   width="989.36841"
   height="666.89062"
   viewBox="0 0 989.36841 666.89062"
   sodipodi:docname="42c3nurlogo.svg"
   inkscape:version="0.92.3 (2405546, 2018-03-11)">
  <metadata
     id="metadata821">
    <rdf:RDF>
      <cc:Work
         rdf:about="">
        <dc:format>image/svg+xml</dc:format>
        <dc:type
           rdf:resource="http://purl.org/dc/dcmitype/StillImage" />
        <dc:title />
      </cc:Work>
    </rdf:RDF>
  </metadata>
  <defs
     id="defs819" />
  <sodipodi:namedview
     pagecolor="#ffffff"
     bordercolor="#666666"
     borderopacity="1"
     objecttolerance="10"
     gridtolerance="10"
     guidetolerance="10"
     inkscape:pageopacity="0"
     inkscape:pageshadow="2"
     inkscape:window-width="1920"
     inkscape:window-height="986"
     id="namedview817"
     showgrid="false"
     inkscape:zoom="0.61357119"
     inkscape:cx="71.674246"
     inkscape:cy="356.78006"
     inkscape:window-x="2869"
     inkscape:window-y="-11"
     inkscape:window-maximized="1"
     inkscape:current-layer="svg815" />
  <path
     style="fill:#000000"
     d="m 781.47151,665.53113 c -9.45786,-3.3713 -16.6275,-13.3471 -16.6275,-23.1353 0,-2.9563 0.88334,-7.6998 1.96297,-10.5412 1.07964,-2.8414 1.6658,-5.6587 1.30259,-6.2607 -0.36322,-0.6021 -7.20906,-9.4196 -15.21298,-19.5946 l -14.55258,-18.5 -0.5,-67.6356 -0.5,-67.6355 -15.00903,14.1355 c -8.25496,7.7746 -20.30164,19.1105 -26.77039,25.1911 l -11.76136,11.0554 1.70695,3.4217 c 2.18114,4.3722 2.84689,12.3483 1.46046,17.4971 -3.28532,12.2007 -17.83994,20.7787 -29.79431,17.5597 -22.65005,-6.099 -26.48775,-35.5022 -6.08665,-46.6338 4.46439,-2.436 6.41451,-2.8737 12.97134,-2.9113 l 7.71701,-0.044 33.03299,-30.9695 33.03299,-30.9694 v -57.8119 c 0,-45.4124 -0.2681,-57.8806 -1.25,-58.1317 -0.6875,-0.1759 -4.4,-1.0725 -8.25,-1.9925 -22.58615,-5.3975 -43.42895,-22.35195 -54.24467,-44.12503 -1.63927,-3.3 -3.50086,-7.60761 -4.13687,-9.57246 l -1.15637,-3.57245 -109.23105,-1.19 c -60.07707,-0.6545 -114.65109,-1.44937 -121.27561,-1.76639 l -12.04456,-0.57639 -10.87619,12.70637 c -7.52927,8.79626 -10.59284,13.07765 -9.95543,13.91288 4.93267,6.46354 9.71138,14.89978 12.06768,21.30397 2.57169,6.9897 2.85307,8.9872 2.85307,20.2545 0,15.1116 -2.26363,23.3176 -9.48265,34.376 -12.22801,18.7314 -32.64135,29.624 -55.51735,29.624 -18.73666,0 -33.76939,-6.2249 -47.03191,-19.4754 -12.62192,-12.6105 -18.46809,-26.605 -18.46809,-44.2089 0,-17.5466 5.7459,-31.25199 18.40642,-43.90366 4.73594,-4.73263 10.79012,-9.58216 14.59358,-11.68978 18.8119,-10.42426 43.25538,-10.86903 62.59449,-1.13896 3.73355,1.87846 7.03965,3.02619 7.34689,2.55052 0.30724,-0.47567 6.18362,-7.4915 13.05862,-15.59074 l 12.5,-14.72589 36,0.60604 c 66.65852,1.12217 210.63274,2.77746 210.97004,2.42556 0.18389,-0.19185 0.49086,-4.73667 0.68215,-10.09959 l 0.34781,-9.75078 -68.78086,7.8e-4 -68.78087,7.7e-4 -56.69692,-31.40184 -56.69693,-31.40184 -6.15478,6.15184 c -20.55479,20.54499 -51.43768,25.06274 -77.78428,11.3788 -38.65599,-20.07721 -46.40913,-70.03453 -15.6341,-100.73827 13.85398,-13.82188 29.75373,-19.72211 50.4254,-18.71234 18.01386,0.87995 30.21993,6.30162 43.19692,19.18712 8.80479,8.74271 14.01764,17.69136 16.89139,28.99663 2.21885,8.7289 1.96517,23.30813 -0.56229,32.31546 -1.14253,4.07172 -1.93003,7.51729 -1.75,7.65682 0.18003,0.13953 24.45695,13.59932 53.94873,29.91065 l 53.6214,29.65697 h 70.1286 c 57.95837,0 70.12859,-0.23261 70.12859,-1.34039 0,-2.16414 9.34915,-17.0931 14.11371,-22.53712 10.42108,-11.90719 26.83646,-22.06167 42.38629,-26.21995 9.62126,-2.57288 29.57509,-3.09269 39,-1.01597 39.11729,8.61926 66.46639,41.89643 66.49299,80.90559 0.016,23.63695 -7.4824,41.89184 -23.9191,58.23067 -4.7156,4.68756 -9.8143,9.4126 -11.3303,10.5 l -2.7565,1.9772 35.6105,61.5 c 19.5857,33.825 38.0709,65.7765 41.0782,71.0033 l 5.4678,9.5033 34.6782,13.1585 c 33.5226,12.7199 34.7615,13.1049 37.1782,11.552 5.7916,-3.7213 8.7257,-4.6211 15,-4.5997 9.8152,0.033 17.7248,5.0645 22.6117,14.3826 2.6745,5.0997 2.5176,16.2083 -0.3038,21.5 -5.9798,11.2155 -17.8829,16.5218 -29.4613,13.1334 -10.4126,-3.0473 -17.8466,-12.7092 -17.8466,-23.1951 v -5.169 l -30.75,-11.5885 c -16.9125,-6.3737 -31.3289,-11.7218 -32.0365,-11.8847 -0.7719,-0.1777 -12.4933,18.8634 -29.3068,47.6082 l -28.0202,47.9042 2.0567,4.7811 c 2.647,6.1531 2.7275,15.8371 0.1783,21.4491 -2.311,5.0877 -9.7938,11.7469 -14.9283,13.2852 -6.7817,2.0319 -13.3848,1.479 -19.31076,-1.6167 -17.5901,-9.1892 -18.25018,-33.8532 -1.17459,-43.8904 3.97135,-2.3344 6.07005,-2.8479 12.25335,-2.9979 l 7.4612,-0.1811 28.372,-48.5732 28.372,-48.5732 -24.4408,-42.2457 c -13.4424,-23.2352 -31.5572,-54.6207 -40.2551,-69.7457 -8.69786,-15.125 -16.12781,-27.8684 -16.51105,-28.3187 -0.38323,-0.4503 -3.82064,0.1302 -7.63869,1.2899 -3.81804,1.1597 -9.83964,2.4281 -13.38133,2.8186 l -6.43942,0.7102 -0.25363,133.0706 -0.25364,133.0706 14.14125,18.1794 14.14125,18.1794 h 6.8945 c 8.08806,0 12.13596,1.4745 17.60026,6.4112 14.0295,12.6748 9.2538,35.7296 -8.7144,42.0691 -5.2798,1.8629 -11.29366,1.8817 -16.42809,0.051 z M 364.72935,357.93943 c 20.01557,-4.6144 34.11341,-23.8213 31.6918,-43.1769 -0.70898,-5.6667 -6.10134,-17.9584 -8.07714,-18.4116 -0.55,-0.12614 -3.11468,2.3726 -5.69929,5.5528 l -4.6993,5.7822 1.49327,4.9067 c 4.49036,14.7547 -6.53372,30.2349 -22.24396,31.2353 -24.16077,1.5384 -36.43344,-26.873 -18.57673,-43.0055 6.98845,-6.31362 16.47824,-8.28693 25.73827,-5.35199 1.57866,0.50035 3.04969,-0.56388 6.82683,-4.93892 l 4.81458,-5.57671 -4.82684,-2.21699 c -4.04836,-1.85943 -6.60091,-2.21873 -15.82683,-2.22775 -9.94829,-0.01 -11.56698,0.25475 -16.93013,2.76637 -12.1071,5.66988 -20.14632,15.00469 -23.20528,26.94499 -7.21957,28.1807 20.09573,54.5016 49.52075,47.718 z M 763.1541,288.6533 c 2.64554,-0.6347 4.81562,-1.50989 4.8224,-1.94486 0.007,-0.43497 -1.33718,-3.18201 -2.98655,-6.10454 -2.95985,-5.24458 -3.04857,-5.30563 -6.82239,-4.6955 l -3.82355,0.61818 -0.29569,6.73636 c -0.33664,7.66938 -0.35305,7.65966 9.10578,5.39036 z m -25.31009,-6.43148 v -6.77747 l -6.75,-2.89636 c -5.2019,-2.23208 -8.39896,-4.5766 -13.93977,-10.22252 l -7.18977,-7.32617 h -7.65525 -7.65525 l 2.74147,4.75 c 7.0099,12.14565 18.98207,22.16336 31.95921,26.74188 3.84415,1.35626 7.32686,2.47543 7.73936,2.48703 0.4125,0.0116 0.75,-3.02877 0.75,-6.75639 z m 53.76439,-8.97252 c 11.4258,-11.14491 17.0122,-23.20603 17.948,-38.75 1.6416,-27.26966 -17.3726,-52.95315 -44.35673,-59.91482 -7.91492,-2.04197 -22.7964,-2.04197 -30.71132,0 -12.34358,3.18454 -28.85453,14.51618 -33.95088,23.30086 l -1.80653,3.11396 h 8.86944 c 8.61136,0 8.95491,-0.0899 11.80654,-3.08921 12.42983,-13.07362 36.6257,-15.60881 53.6653,-5.62294 6.46242,3.78724 14.46787,12.84851 18.07028,20.45362 3.051,6.44088 3.2015,7.32496 3.2015,18.81039 0,11.88208 -0.052,12.15679 -3.6928,19.5 -2.22146,4.48063 -5.69494,9.41278 -8.71811,12.37919 l -5.0254,4.93105 3.19898,5.81895 c 1.75945,3.20042 3.5101,5.81895 3.89034,5.81895 0.38024,0 3.80543,-3.0375 7.61139,-6.75 z m -86.75338,-41 c 0.006,-3.7125 0.28993,-8.4375 0.63084,-10.5 l 0.61983,-3.75 h -7.07182 c -4.13569,0 -7.35886,0.46443 -7.76315,1.11859 -0.38023,0.61523 -0.91775,5.0896 -1.19448,9.94304 l -0.50315,8.82446 5.38546,0.37197 c 2.962,0.20459 6.39796,0.45522 7.63546,0.55696 2.12841,0.17498 2.25059,-0.17979 2.26101,-6.56502 z M 379.98553,152.30397 c 6.0168,-2.82496 12.86846,-7.70031 12.85004,-9.14356 -0.005,-0.36361 -2.9133,-2.20402 -6.46369,-4.0898 l -6.45525,-3.42869 -5.28631,2.92193 c -4.42224,2.44433 -6.43049,2.92304 -12.28631,2.92869 -5.83086,0.006 -7.77574,-0.44927 -11.6446,-2.72363 -8.91536,-5.241 -13.09934,-12.42314 -13.04186,-22.38736 0.0593,-10.27349 5.73849,-18.96558 15.05718,-23.04512 4.66612,-2.04274 14.59947,-2.08902 19.26884,-0.0898 9.07647,3.88617 15.83745,14.12305 15.87741,24.04016 0.0169,4.18444 0.0636,4.23766 7.02004,7.99206 8.4267,4.54792 8.46299,4.51028 8.46299,-8.77957 0,-8.03597 -0.34002,-9.71774 -3.1744,-15.70071 -12.29959,-25.96275 -46.96652,-31.87265 -67.35647,-11.48271 -8.93896,8.93897 -13.26145,21.63254 -11.1792,32.82925 2.31831,12.46608 9.04508,22.15694 19.72402,28.41521 7.27886,4.2657 12.79139,5.47649 23.12757,5.07982 7.60794,-0.29197 10.20821,-0.85164 15.5,-3.33619 z M 90.078861,439.51143 c -47.84955,-8.7333 -82.91606,-45.6063 -89.25726996,-93.8554 -0.7288,-5.5453 -0.96536,-47.53 -0.739,-131.15623 0.33121,-122.36223 0.34414,-123.04195 2.49363996,-131.0892 10.04773,-37.61646 34.77995,-65.11142 69.91819,-77.7284697 16.68325,-5.99043999 3.90914,-5.68270999227 235.710059,-5.67830999 181.53459,0.003 213.43794,0.21536 221.13953,1.46893999 27.79961,4.52491 50.94025,19.2492097 65.94914,41.9631897 6.66274,10.08316 9.52281,15.78812 13.31729,26.56385 6.56213,18.63543 6.73357,20.32435 6.73357,66.33569 v 41.83569 l -2.80576,2.41431 c -3.68303,3.16918 -7.69355,3.10793 -10.76993,-0.16448 l -2.42431,-2.57879 -0.54345,-43.67121 -0.54346,-43.67121 -2.76863,-9 C 585.17496,47.97358 563.95182,26.58986 533.221,18.76121 l -8.87699,-2.26141 h -215.5 -215.499999 l -8.0655,2.20904 c -16.31555,4.46863 -28.57819,11.37237 -40.29364,22.68491 -16.37779,15.81452 -25.82105,34.93056 -28.14361,56.97123 -1.34546,12.76818 -1.30181,230.40795 0.0489,243.77885 3.86744,38.2847 31.15582,69.8949 69.13597,80.0856 l 8.31789,2.2318 207.999999,0.3087 c 147.11059,0.2182 210.48827,-0.013 216.5,-0.7912 39.80417,-5.1502 71.94121,-35.8477 78.94902,-75.4126 0.59507,-3.3597 1.05097,-20.4072 1.05097,-39.2997 0,-39.13846 0.24228,-40.26663 8.64753,-40.26663 3.74474,0 6.02113,1.61075 7.24729,5.12811 1.37402,3.94154 1.45799,55.28892 0.11262,68.87192 -2.53145,25.5578 -13.46907,48.6561 -31.48942,66.5 -13.69388,13.5598 -30.20089,23.0394 -49.31221,28.3188 l -9.70581,2.6812 -213.5,0.1688 c -173.57271,0.1372 -214.858679,-0.079 -220.765149,-1.1572 z m 0.26515,-23.9839 c -26.25314,-5.8068 -47.56338,-22.7712 -59.07477,-47.0277 -8.51593,-17.9446 -7.81871,-5.5907 -8.16765,-144.72154 -0.30003,-119.62404 -0.24537,-124.03935 1.65026,-133.31863 3.67075,-17.96859 15.25895,-37.05459 29.26446,-48.19911 8.25291,-6.56703 19.0154,-12.31224 29.8277,-15.92254 l 8.5,-2.83821 209.499999,-0.30597 c 153.28329,-0.22387 211.46512,6e-5 216.82331,0.8345 32.86016,5.11739 58.75854,27.92873 68.87362,60.664 l 2.72147,8.80747 0.0408,41.88926 c 0.0378,38.83269 -0.0869,41.96993 -1.7092,42.99488 -1.2757,0.80597 -2.2243,0.80682 -3.5,0.003 -1.6045,-1.01085 -1.79728,-4.50232 -2.31872,-41.99489 -0.60936,-43.8144 -0.67505,-44.41837 -6.35084,-58.38656 -9.6076,-23.64445 -33.21467,-42.01305 -59.10389,-45.98857 -4.84083,-0.74335 -70.65121,-0.97944 -214.97655,-0.77122 -197.54583,0.28501 -208.299749,0.39127 -213.963939,2.11414 -29.51339,8.97709 -50.15604,31.15009 -55.98918,60.13996 -1.43718,7.14262 -1.5782,21.07506 -1.31581,130 l 0.29389,122.00003 2.30272,7.4726 c 4.12371,13.3819 9.64418,22.552 19.64217,32.6276 12.3603,12.4563 23.70277,18.7669 39.39746,21.9197 6.74028,1.354 32.185689,1.5009 217.632689,1.2567 l 210,-0.2766 7,-2.3499 c 22.29625,-7.4846 39.48151,-22.6 48.62722,-42.7704 5.6942,-12.5583 6.11897,-15.9315 6.77129,-53.7724 0.5474,-31.75513 0.75885,-34.99183 2.35149,-35.99491 1.27505,-0.80306 2.22495,-0.80272 3.5,0.001 1.59422,1.0052 1.77638,3.85326 2.04631,31.99491 0.31978,33.338 -0.37036,41.8486 -4.34004,53.52 -8.90054,26.1687 -29.07318,45.6557 -56.95627,55.0204 l -7,2.351 -213,0.1774 c -173.82207,0.1448 -214.103599,-0.067 -218.999999,-1.1497 z"
     id="path4531"
     inkscape:connector-curvature="0"
     sodipodi:nodetypes="csccscccccccsccccccsccsccsscsccsssssssssscssscccccssssssssscssssscccccccccccccscccccccccscccccccsccccccscccccccscccccscscsscscsccssscsscccccssccccccscccscsccsccccsssccccccscscscscccscsssscccsscsssscsscccsscccssssccsccsscssccscccsssscssscsccssssccscsccsccssccscccscccs" />
</svg>
