<?xml version="1.0" encoding="UTF-8" standalone="no"?>
<!-- Created with Inkscape (http://www.inkscape.org/) -->

<svg
   xmlns:dc="http://purl.org/dc/elements/1.1/"
   xmlns:cc="http://creativecommons.org/ns#"
   xmlns:rdf="http://www.w3.org/1999/02/22-rdf-syntax-ns#"
   xmlns:svg="http://www.w3.org/2000/svg"
   xmlns="http://www.w3.org/2000/svg"
   xmlns:sodipodi="http://sodipodi.sourceforge.net/DTD/sodipodi-0.dtd"
   xmlns:inkscape="http://www.inkscape.org/namespaces/inkscape"
   version="1.1"
   id="svg815"
   width="821"
   height="174.29774"
   viewBox="0 0 821 174.29774"
   sodipodi:docname="42c3ttinac.svg"
   inkscape:version="0.92.3 (2405546, 2018-03-11)">
  <metadata
     id="metadata821">
    <rdf:RDF>
      <cc:Work
         rdf:about="">
        <dc:format>image/svg+xml</dc:format>
        <dc:type
           rdf:resource="http://purl.org/dc/dcmitype/StillImage" />
        <dc:title />
      </cc:Work>
    </rdf:RDF>
  </metadata>
  <defs
     id="defs819" />
  <sodipodi:namedview
     pagecolor="#ffffff"
     bordercolor="#666666"
     borderopacity="1"
     objecttolerance="10"
     gridtolerance="10"
     guidetolerance="10"
     inkscape:pageopacity="0"
     inkscape:pageshadow="2"
     inkscape:window-width="1920"
     inkscape:window-height="986"
     id="namedview817"
     showgrid="false"
     inkscape:zoom="0.8677207"
     inkscape:cx="348.5675"
     inkscape:cy="26.470957"
     inkscape:window-x="2869"
     inkscape:window-y="-11"
     inkscape:window-maximized="1"
     inkscape:current-layer="svg815" />
  <path
     style="fill:#000000"
     d="m 54,173.44573 c -11.779701,-3.5962 -20,-13.063 -20,-23.0327 v -4.0321 h 9.5 c 7.487309,0.64145 9.5,-3.32603 9.5,4.3257 0,4.9762 2.583494,8.1208 7.931914,9.6547 6.249795,1.7925 13.323685,-1.6811 14.622163,-7.1801 0.97499,-4.129 -2.407251,-6.7005 -16.684985,-12.6852 -6.947,-2.9119 -14.27256,-6.6476 -16.279023,-8.3015 -10.981412,-9.0518 -10.435751,-25.3863 1.101578,-32.975898 7.395966,-4.8653 12.399535,-6.1189 22.519403,-5.6419 10.778055,0.5081 17.285987,3.1894 22.695958,9.350998 C 93.209823,107.82843 94,110.23603 94,118.44603 v 6.9349 h -9 -9 v -5.9843 c 0,-5.1323 -0.396084,-6.4275 -2.782441,-9.0983 -3.487965,-3.9037 -10.175396,-5.0248 -15.022201,-2.5185 C 54.456083,109.71353 53,112.13333 53,116.41393 c 0,4.7796 4.131837,7.8743 17.724488,13.2753 C 88.119292,136.60093 94,142.22023 94,151.93013 c 0,13.0274 -12.690227,22.5554 -29.787513,22.3648 C 59.970619,174.24793 55.375,173.86553 54,173.44573 Z m 184,-0.6356 c -6.56476,-2.0882 -13.38638,-7.5302 -15.86973,-12.6601 -1.97765,-4.0853 -2.1287,-5.9721 -2.10831,-26.3349 0.0246,-24.525 0.64739,-27.4539 6.96927,-32.7734 14.68384,-12.355598 39.33659,-10.276398 49.46983,4.1723 l 3.03894,4.3332 0.3028,22.992 c 0.28869,21.9211 0.2011,23.2022 -1.88027,27.5017 -2.61082,5.3932 -9.38026,10.7059 -16.35403,12.8346 -6.11734,1.8673 -17.59276,1.8355 -23.5685,-0.065 z m 19,-14.3739 c 4.6515,-3.2526 4.9856,-5.1513 4.4087,-25.0553 -0.29492,-10.175 -0.7446,-19.5265 -0.99929,-20.7811 -0.61241,-3.0165 -6.0143,-6.7981 -10.51153,-6.2152 -4.92823,0.0591 -7.80644,0.36793 -10.39788,4.5743 l -0.26855,21.9945 c -0.29936,24.5168 -0.28023,24.5987 6.28178,26.8962 4.48012,1.5686 7.80794,1.1591 11.48677,-1.4134 z m 270.5,13.9704 c -6.44703,-2.557 -12.044,-7.2116 -14.52902,-12.0826 -1.78824,-3.5053 -1.97098,-5.9472 -1.97098,-26.3382 0,-12.3611 0.42992,-23.6055 0.95537,-24.9876 1.75869,-4.6257 7.88694,-10.273398 14.24212,-13.125498 11.93053,-5.3541 28.80337,-3.049 37.17174,5.078298 4.89035,4.7494 6.49023,8.1531 6.83802,14.5475 l 0.29275,5.3824 -9.25,0.2875 -9.25,0.2875 v -4.4011 c 0,-3.4116 -0.5873,-4.9885 -2.61208,-7.0133 -4.70249,-4.7025 -13.10836,-4.716 -17.51234,-0.028 -2.34738,2.4987 -2.37558,2.7817 -2.37558,23.8432 0,19.5716 0.15607,21.4869 1.9088,23.4236 4.16776,4.6053 13.99827,4.6234 18.15218,0.033 1.02344,-1.1309 2.10339,-4.1659 2.39991,-6.7444 l 0.53911,-4.6882 h 9 9 l 0.30798,3.1778 c 0.81541,8.4137 -4.89373,17.2667 -14.24452,22.0885 -6.99185,3.6055 -21.55701,4.2366 -29.06346,1.2594 z M 6,133.88093 V 94.380932 h 9.5 9.5 v 39.499998 39.5 H 15.5 6 Z m 144.58476,1.0507 c -0.40095,-21.18741 -0.21092,-40.359328 -0.21092,-40.359328 0,0 4.03412,-0.19137 8.05514,-0.19137 h 7.31093 l 12.38005,21.549898 12.38004,21.5499 0.2695,-21.5499 0.2695,-21.549898 H 199.5195 208 v 39.543798 l 0.11752,39.07372 -14.51831,-0.11752 -12.3044,-19.4548 c -11.84181,-18.7234 -15.34009,-23.6815 -13.98112,-19.8154 0.33443,0.9514 0.66485,10.1764 0.73428,20.5 l 0.12622,18.7702 -8.66971,0.0517 -8.19962,0.0517 z M 304,140.38093 v -33 h -10 -10 v -6.5 -6.499998 h 30 30 v 6.464998 l -0.11752,7.0526 -9.6624,0.05 -10.72008,-0.0676 -0.26366,32.75 -0.26367,32.75 H 313.48634 304 Z m 91.01349,32.78972 c 0,0 4.22262,-18.61472 9.36711,-39.78972 l 9.35362,-38.499998 c 8.16255,0.10967 15.91305,0.0336 23.87067,-0.15361 l 8.83346,37.874408 c 4.90765,21.04207 9.50693,40.81102 9.50693,40.81102 0,0 -2.02971,-0.0318 -9.14623,-0.0318 h -9.41493 l -0.94206,-4.25 L 435.5,164.4087 c -6.81864,-0.025 -13.6278,-0.17716 -20.44449,-0.0972 l -2.03745,8.99143 c 0,0 0.57212,0.078 -9.08545,0.078 -3.34857,-0.0722 -6.00767,-0.0642 -8.91912,-0.21026 z m 34.97124,-34.53972 c -1.50832,-7.5625 -3.96,-18.72083 -4.37624,-20.92083 0,0 -0.19759,0.59083 -3.68474,16.17083 -2.09274,9.35 -3.86437,18.42464 -3.86437,18.42464 0,0 3.1367,0.0754 7.30419,0.0754 h 7.36356 z M 582,133.88093 V 94.380932 h 19.3185 c 21.42334,0 26.47191,0.8923 33.38644,5.901198 6.18563,4.4808 8.62912,8.569 9.11203,15.2451 0.35362,4.8888 0.0131,6.468 -2.21468,10.2693 -1.44791,2.4707 -3.7105,4.98773 -4.72771,5.9597 -7.17388,6.8548 -9.32834,-4.07137 1.0308,5.3573 4.34226,5.4034 5.09462,8.8754 5.09462,23.5108 v 12.7566 h -9.5 -9.5 v -13.2775 c 0,-10.0444 -0.35683,-13.787 -1.46539,-15.3697 -2.39381,-3.4176 -7.74736,-5.3528 -14.80794,-5.3528 h -6.47108 c -0.10344,12.57677 -0.22663,22.57861 -0.16368,33.88277 l -10.19074,0.11723 H 582 Z m 39.63364,-10.5826 c 5.65993,-3.4981 5.71165,-9.1113 0.12065,-13.0924 -2.50856,-1.7862 -4.87148,-2.3103 -11.94086,-2.6483 L 601,107.13623 v 9.1223 9.1224 h 8.63197 c 7.00072,0 9.26876,-0.3936 12.00167,-2.0826 z M 656,133.88093 V 94.380932 h 9 9 v 39.499998 39.5 h -9 -9 z m 32,0 V 94.380932 h 10.4101 10.41011 l 6.83229,7.633798 6.83228,7.6339 7.10859,-7.6339 7.10858,-7.633798 H 746.85098 757 v 39.499998 39.5 h -9 -9 l -0.049,-29.25 -0.0489,-29.25 -8.03474,8.5 -8.03474,8.5 -7.91631,-8.391 -7.9163,-8.3909 v 29.1409 29.141 h -9.5 -9.5 v -39.5 z m 82,7.6508 c 0,-17.517 -0.29113,-38.67937 -0.29113,-38.67937 l -0.0567,-8.471428 h 26.49454 24.85326 v 6.499998 6.5 h -16 -16 v 9 9 h 16 16 v 7 7 h -16 -16 v 10 10 h 16 16 v 7 7 h -25.5 -25.5 z M 20.763664,46.630932 20.5,13.880932 10.25,13.595932 0.0351057,13.603932 0,6.8463816 V 0.38138156 H 30 60 V 6.8813816 13.381382 H 49.5 39 v 33 33 H 30.013664 21.027329 Z M 67,39.880932 V 0.38093156 h 9.5 9.5 v 39.50000044 39.5 H 76.5 67 Z m 33,0 V 0.38093156 h 10.1727 10.17271 l 6.9163,7.50600004 6.91631,7.5060004 7.00977,-7.5060004 7.00977,-7.50600004 H 158.59878 169 v 39.53750044 39.5375 l -9.25,-0.2875 -9.25,-0.2875 -0.5,-28.8166 -0.5,-28.8165 -7.31787,8.0665 c -4.02482,4.4366 -7.62482,8.0637 -8,8.0602 -0.37517,0 -3.83213,-3.5712 -7.68213,-7.9283 -3.85,-4.3571 -7.3375,-7.9542 -7.75,-7.9937 -0.4125,-0.039 -0.75,12.9784 -0.75,28.9284 v 29 h -9 -9 z m 82,0.034 V 0.44833156 l 25.07824,-0.0509 24.92325,-0.051 -7.4e-4,6.25963004 -0.0782,7.1120704 -15.75122,0.0429 -15.36376,0.12041 -6.9e-4,8.5 -6.8e-4,8.5 15.84692,0.035 15.84692,0.035 0.0626,7.65493 0.0626,7.34496 -15.66805,0.0425 -16.13303,-0.11247 v 9.5 9.5 l 16.08791,0.2748 16.0879,0.2747 v 6.9753 6.9752 h -25.5 -25.5 z m 124.35992,39.31105 c 0,0 -0.35992,-15.72795 -0.35992,-33.51125 v -32.3333 H 296 286 V 6.8814316 0.38143156 h 29 c 15.95,0 29.3375,-0.1125 29.75,-0.25 0.4125,-0.1375 0.88306,2.78750004 1.04569,6.50000004 l 0.29569,6.7500004 H 335.54569 325 v 33 33 h -8.83333 c 0,0 -9.44009,0.21125 -9.80675,-0.15545 z M 353,40.048032 c 0,-21.6333 0.18605,-39.52080044 0.41345,-39.75000044 0.22739,-0.2291 10.01489,-0.1875 21.75,0.092 19.91368,0.4752 21.63664,0.66580004 25.83655,2.85780004 5.29195,2.762 10.59823,7.5405004 12.58532,11.3334004 2.31115,4.4116 1.80245,12.4623 -1.10046,17.4157 -1.38332,2.3605 -3.49891,4.9809 -4.70131,5.8231 l -2.18618,1.5312 2.64827,2.7649 c 4.79352,5.0045 5.75436,8.9673 5.75436,23.7326 v 13.5322 h -9.5 -9.5 v -13.8257 c 0,-13.0639 -0.12398,-13.9386 -2.25,-15.8751 -3.84604,-3.503 -6.38033,-4.2992 -13.68426,-4.2992 H 372 v 17 17 h -9.5 -9.5 z m 39.02749,-10.3129 c 5.52563,-3.6792 6.60396,-8.4768 2.72251,-12.1128 -3.42253,-3.2061 -7.15965,-4.2409 -15.3151,-4.2409 H 372 v 9 9 h 8.77749 c 6.481,0 9.42439,-0.4308 11.25,-1.6463 z m 29.97686,48.8963 c 0.002,-0.4125 4.20859,-18.075 9.3471,-39.25 l 9.34274,-38.50000044 11.96655,-0.2793 11.96655,-0.2793 3.15422,13.77930044 c 6.19854,27.0785 14.61157,63.03699 15.14339,64.79479 l -9.09308,0.27301 -9.22519,0.1205 -0.99652,-4.659 -0.89427,-4.25 H 452.37697 442.0381 l -0.61199,2.75 c -1.47488,6.6273 -1.29105,6.0455 -1.29105,6.0455 0,0 -18.1331,-0.133 -18.13071,-0.5455 z m 37.20083,-20.36401 c 3.7e-4,-0.9625 -1.64022,-10.58109 -3.39582,-19.37509 l -3.192,-15.989 -3.75891,16.989 c -2.0674,9.344 -4.08805,17.7356 -4.11543,18.1481 -0.0274,0.4125 3.40698,0.341 7.25698,0.341 5.99974,0 7.20518,-0.11401 7.20518,-0.11401 z m 38.35418,10.89731 c -3.80592,-14.2661 -18.57878,-68.46479044 -18.57878,-68.46479044 0,0 0.80715,-0.31851 9.45203,-0.31851 5.26207,0 9.15839,-0.26895 9.15839,0.0272 0,1.37790004 11.72926,48.62595044 12.33699,49.75715044 0.37954,0.7065 3.3635,-10.2041 6.63104,-24.2456 L 522.5,0.39018156 h 9.26905 9.26905 l -0.59885,2.38610004 c -0.32938,1.3123 -4.99996,18.9748004 -10.37908,39.2500004 l -9.78021,36.8639 -9.9886,0.2833 -9.98861,0.2833 -2.74339,-10.2833 z M 550,39.881432 V 0.38143156 h 24.5 c 13.475,0 25.85999,0.19425 26.27249,0.0567 0.4125,-0.1375 -0.36511,-2.67110996 0.0232,6.19325004 l -0.0111,6.7500004 H 585.04569 569 v 8.9746 8.9746 l 15.75,0.2754 15.75,0.2754 0.29569,6.75 0.29569,6.75 H 585.04569 569 v 10 10 h 16 16 v 7 7 H 575.5 550 Z m 65,0 V 0.38143156 h 9 9 v 32.50000044 32.5 h 16 16 v 7 7 h -25 -25 z"
     id="path4531"
     inkscape:connector-curvature="0"
     sodipodi:nodetypes="csccccccccccscccsccscscccccsccssccccscccsccccscccscccsccscccccccccccccccccccscsccccccccccscscccsccccccccccccccccccsccscsccccccccccscsccccccccscccscscccccccccccscccscccccccsccccccccccccccccccccccccsccccccccccccccccccccccccsccccccccccccccccccccccccccccccccccccccccccccscsccccccscccccccccccccccccccccccscccccssscccccccsccccccccscccscscccccsccccccsccccccscccccccccccccccsccccscsccccsccccccccssccccccccccccccccccccccccccccccccccc" />
</svg>
